<mxfile host="Electron" agent="Mozilla/5.0 (Windows NT 10.0; Win64; x64) AppleWebKit/537.36 (KHTML, like Gecko) draw.io/26.0.16 Chrome/132.0.6834.196 Electron/34.2.0 Safari/537.36" version="26.0.16">
  <diagram name="Page-1" id="tXG55jVxtdDTSZWkihLU">
    <mxGraphModel dx="2112" dy="1457" grid="1" gridSize="10" guides="1" tooltips="1" connect="1" arrows="1" fold="1" page="1" pageScale="1" pageWidth="1100" pageHeight="850" math="0" shadow="0">
      <root>
        <mxCell id="0" />
        <mxCell id="1" parent="0" />
        <mxCell id="kF3sTlDbWWNvE3L73D8_-4" value="Database Access" style="swimlane;fontStyle=1;align=center;verticalAlign=top;childLayout=stackLayout;horizontal=1;startSize=26;horizontalStack=0;resizeParent=1;resizeParentMax=0;resizeLast=0;collapsible=1;marginBottom=0;whiteSpace=wrap;html=1;" parent="1" vertex="1">
          <mxGeometry x="410" y="620" width="160" height="120" as="geometry" />
        </mxCell>
        <mxCell id="kF3sTlDbWWNvE3L73D8_-5" value="&lt;div&gt;&lt;div style=&quot;font-size: 11px;&quot;&gt;- dBURL: String&lt;/div&gt;&lt;div style=&quot;font-size: 11px;&quot;&gt;- cnnctTimeOut: Double&lt;/div&gt;&lt;/div&gt;" style="text;strokeColor=none;fillColor=none;align=left;verticalAlign=top;spacingLeft=4;spacingRight=4;overflow=hidden;rotatable=0;points=[[0,0.5],[1,0.5]];portConstraint=eastwest;whiteSpace=wrap;html=1;fontStyle=0" parent="kF3sTlDbWWNvE3L73D8_-4" vertex="1">
          <mxGeometry y="26" width="160" height="64" as="geometry" />
        </mxCell>
        <mxCell id="kF3sTlDbWWNvE3L73D8_-6" value="" style="line;strokeWidth=1;fillColor=none;align=left;verticalAlign=middle;spacingTop=-1;spacingLeft=3;spacingRight=3;rotatable=0;labelPosition=right;points=[];portConstraint=eastwest;strokeColor=inherit;fontStyle=0" parent="kF3sTlDbWWNvE3L73D8_-4" vertex="1">
          <mxGeometry y="90" width="160" height="30" as="geometry" />
        </mxCell>
        <mxCell id="E4u7SWDCAfa03cuSUIF7-13" value="" style="edgeStyle=none;shape=connector;rounded=0;orthogonalLoop=1;jettySize=auto;html=1;strokeColor=default;align=center;verticalAlign=middle;fontFamily=Helvetica;fontSize=11;fontColor=default;labelBackgroundColor=default;endArrow=none;startArrow=block;startFill=0;endSize=6;startSize=10;jumpStyle=none;exitX=0.5;exitY=1;exitDx=0;exitDy=0;fontStyle=0" parent="1" source="MVc7WZ1SkRlFC5I5kt_B-1" edge="1">
          <mxGeometry relative="1" as="geometry">
            <mxPoint x="77.84" y="215" as="targetPoint" />
            <mxPoint x="77.84" y="161" as="sourcePoint" />
          </mxGeometry>
        </mxCell>
        <mxCell id="E4u7SWDCAfa03cuSUIF7-19" style="edgeStyle=none;shape=connector;rounded=0;orthogonalLoop=1;jettySize=auto;html=1;exitX=1.002;exitY=0.761;exitDx=0;exitDy=0;strokeColor=default;align=center;verticalAlign=middle;fontFamily=Helvetica;fontSize=11;fontColor=default;labelBackgroundColor=default;endArrow=none;exitPerimeter=0;fontStyle=0" parent="1" source="MVc7WZ1SkRlFC5I5kt_B-2" edge="1">
          <mxGeometry relative="1" as="geometry">
            <mxPoint x="188" y="118" as="targetPoint" />
          </mxGeometry>
        </mxCell>
        <mxCell id="E4u7SWDCAfa03cuSUIF7-23" value="Is A" style="edgeLabel;html=1;align=center;verticalAlign=middle;resizable=0;points=[];fontFamily=Helvetica;fontSize=11;fontColor=default;labelBackgroundColor=default;fontStyle=0" parent="E4u7SWDCAfa03cuSUIF7-19" vertex="1" connectable="0">
          <mxGeometry x="-0.0736" y="-2" relative="1" as="geometry">
            <mxPoint y="-11" as="offset" />
          </mxGeometry>
        </mxCell>
        <mxCell id="MVc7WZ1SkRlFC5I5kt_B-1" value="User" style="swimlane;fontStyle=1;align=center;verticalAlign=top;childLayout=stackLayout;horizontal=1;startSize=26;horizontalStack=0;resizeParent=1;resizeParentMax=0;resizeLast=0;collapsible=1;marginBottom=0;whiteSpace=wrap;html=1;" parent="1" vertex="1">
          <mxGeometry x="-2" y="66" width="160" height="90" as="geometry" />
        </mxCell>
        <mxCell id="MVc7WZ1SkRlFC5I5kt_B-2" value="username&lt;div&gt;password&lt;/div&gt;" style="text;strokeColor=none;fillColor=none;align=left;verticalAlign=top;spacingLeft=4;spacingRight=4;overflow=hidden;rotatable=0;points=[[0,0.5],[1,0.5]];portConstraint=eastwest;whiteSpace=wrap;html=1;fontStyle=0" parent="MVc7WZ1SkRlFC5I5kt_B-1" vertex="1">
          <mxGeometry y="26" width="160" height="34" as="geometry" />
        </mxCell>
        <mxCell id="MVc7WZ1SkRlFC5I5kt_B-3" value="" style="line;strokeWidth=1;fillColor=none;align=left;verticalAlign=middle;spacingTop=-1;spacingLeft=3;spacingRight=3;rotatable=0;labelPosition=right;points=[];portConstraint=eastwest;strokeColor=inherit;fontStyle=0" parent="MVc7WZ1SkRlFC5I5kt_B-1" vertex="1">
          <mxGeometry y="60" width="160" height="30" as="geometry" />
        </mxCell>
        <mxCell id="MVc7WZ1SkRlFC5I5kt_B-17" value="Person" style="swimlane;fontStyle=1;align=center;verticalAlign=top;childLayout=stackLayout;horizontal=1;startSize=26;horizontalStack=0;resizeParent=1;resizeParentMax=0;resizeLast=0;collapsible=1;marginBottom=0;whiteSpace=wrap;html=1;" parent="1" vertex="1">
          <mxGeometry x="220" y="-20" width="160" height="130" as="geometry" />
        </mxCell>
        <mxCell id="MVc7WZ1SkRlFC5I5kt_B-18" value="firstName&lt;div&gt;lastName&lt;/div&gt;&lt;div&gt;workPhone&lt;/div&gt;&lt;div&gt;mobilePhone&lt;/div&gt;&lt;div&gt;emailAddress&lt;/div&gt;" style="text;strokeColor=none;fillColor=none;align=left;verticalAlign=top;spacingLeft=4;spacingRight=4;overflow=hidden;rotatable=0;points=[[0,0.5],[1,0.5]];portConstraint=eastwest;whiteSpace=wrap;html=1;fontStyle=0" parent="MVc7WZ1SkRlFC5I5kt_B-17" vertex="1">
          <mxGeometry y="26" width="160" height="74" as="geometry" />
        </mxCell>
        <mxCell id="MVc7WZ1SkRlFC5I5kt_B-19" value="" style="line;strokeWidth=1;fillColor=none;align=left;verticalAlign=middle;spacingTop=-1;spacingLeft=3;spacingRight=3;rotatable=0;labelPosition=right;points=[];portConstraint=eastwest;strokeColor=inherit;fontStyle=0" parent="MVc7WZ1SkRlFC5I5kt_B-17" vertex="1">
          <mxGeometry y="100" width="160" height="30" as="geometry" />
        </mxCell>
        <mxCell id="MVc7WZ1SkRlFC5I5kt_B-20" value="Customer Contact" style="swimlane;fontStyle=1;align=center;verticalAlign=top;childLayout=stackLayout;horizontal=1;startSize=26;horizontalStack=0;resizeParent=1;resizeParentMax=0;resizeLast=0;collapsible=1;marginBottom=0;whiteSpace=wrap;html=1;" parent="1" vertex="1">
          <mxGeometry x="-2" y="-35" width="160" height="90" as="geometry" />
        </mxCell>
        <mxCell id="MVc7WZ1SkRlFC5I5kt_B-21" value="title&lt;div&gt;isSignatory&lt;/div&gt;" style="text;strokeColor=none;fillColor=none;align=left;verticalAlign=top;spacingLeft=4;spacingRight=4;overflow=hidden;rotatable=0;points=[[0,0.5],[1,0.5]];portConstraint=eastwest;whiteSpace=wrap;html=1;fontStyle=0" parent="MVc7WZ1SkRlFC5I5kt_B-20" vertex="1">
          <mxGeometry y="26" width="160" height="34" as="geometry" />
        </mxCell>
        <mxCell id="MVc7WZ1SkRlFC5I5kt_B-22" value="" style="line;strokeWidth=1;fillColor=none;align=left;verticalAlign=middle;spacingTop=-1;spacingLeft=3;spacingRight=3;rotatable=0;labelPosition=right;points=[];portConstraint=eastwest;strokeColor=inherit;fontStyle=0" parent="MVc7WZ1SkRlFC5I5kt_B-20" vertex="1">
          <mxGeometry y="60" width="160" height="30" as="geometry" />
        </mxCell>
        <mxCell id="MVc7WZ1SkRlFC5I5kt_B-23" value="Loan Accountant" style="swimlane;fontStyle=1;align=center;verticalAlign=top;childLayout=stackLayout;horizontal=1;startSize=26;horizontalStack=0;resizeParent=1;resizeParentMax=0;resizeLast=0;collapsible=1;marginBottom=0;whiteSpace=wrap;html=1;" parent="1" vertex="1">
          <mxGeometry x="269" y="246" width="160" height="110" as="geometry" />
        </mxCell>
        <mxCell id="MVc7WZ1SkRlFC5I5kt_B-24" value="systemCloseAccess&lt;div&gt;gLAccessLevel&lt;/div&gt;&lt;div&gt;entryApprovalLevel&lt;/div&gt;" style="text;strokeColor=none;fillColor=none;align=left;verticalAlign=top;spacingLeft=4;spacingRight=4;overflow=hidden;rotatable=0;points=[[0,0.5],[1,0.5]];portConstraint=eastwest;whiteSpace=wrap;html=1;fontStyle=0" parent="MVc7WZ1SkRlFC5I5kt_B-23" vertex="1">
          <mxGeometry y="26" width="160" height="54" as="geometry" />
        </mxCell>
        <mxCell id="MVc7WZ1SkRlFC5I5kt_B-25" value="" style="line;strokeWidth=1;fillColor=none;align=left;verticalAlign=middle;spacingTop=-1;spacingLeft=3;spacingRight=3;rotatable=0;labelPosition=right;points=[];portConstraint=eastwest;strokeColor=inherit;fontStyle=0" parent="MVc7WZ1SkRlFC5I5kt_B-23" vertex="1">
          <mxGeometry y="80" width="160" height="30" as="geometry" />
        </mxCell>
        <mxCell id="MVc7WZ1SkRlFC5I5kt_B-26" value="Loan Analyst" style="swimlane;fontStyle=1;align=center;verticalAlign=top;childLayout=stackLayout;horizontal=1;startSize=26;horizontalStack=0;resizeParent=1;resizeParentMax=0;resizeLast=0;collapsible=1;marginBottom=0;whiteSpace=wrap;html=1;" parent="1" vertex="1">
          <mxGeometry x="-300" y="245" width="160" height="90" as="geometry" />
        </mxCell>
        <mxCell id="MVc7WZ1SkRlFC5I5kt_B-27" value="approvalLevelReq&lt;div&gt;&lt;br&gt;&lt;/div&gt;&lt;div&gt;&lt;br&gt;&lt;/div&gt;" style="text;strokeColor=none;fillColor=none;align=left;verticalAlign=top;spacingLeft=4;spacingRight=4;overflow=hidden;rotatable=0;points=[[0,0.5],[1,0.5]];portConstraint=eastwest;whiteSpace=wrap;html=1;fontStyle=0" parent="MVc7WZ1SkRlFC5I5kt_B-26" vertex="1">
          <mxGeometry y="26" width="160" height="34" as="geometry" />
        </mxCell>
        <mxCell id="MVc7WZ1SkRlFC5I5kt_B-28" value="" style="line;strokeWidth=1;fillColor=none;align=left;verticalAlign=middle;spacingTop=-1;spacingLeft=3;spacingRight=3;rotatable=0;labelPosition=right;points=[];portConstraint=eastwest;strokeColor=inherit;fontStyle=0" parent="MVc7WZ1SkRlFC5I5kt_B-26" vertex="1">
          <mxGeometry y="60" width="160" height="30" as="geometry" />
        </mxCell>
        <mxCell id="MVc7WZ1SkRlFC5I5kt_B-29" value="Billing Analyst" style="swimlane;fontStyle=1;align=center;verticalAlign=top;childLayout=stackLayout;horizontal=1;startSize=26;horizontalStack=0;resizeParent=1;resizeParentMax=0;resizeLast=0;collapsible=1;marginBottom=0;whiteSpace=wrap;html=1;" parent="1" vertex="1">
          <mxGeometry x="79" y="246" width="160" height="90" as="geometry" />
        </mxCell>
        <mxCell id="MVc7WZ1SkRlFC5I5kt_B-30" value="mortgageBillingLevel&lt;br&gt;&lt;div&gt;custCommunEnabled&lt;/div&gt;" style="text;strokeColor=none;fillColor=none;align=left;verticalAlign=top;spacingLeft=4;spacingRight=4;overflow=hidden;rotatable=0;points=[[0,0.5],[1,0.5]];portConstraint=eastwest;whiteSpace=wrap;html=1;fontStyle=0" parent="MVc7WZ1SkRlFC5I5kt_B-29" vertex="1">
          <mxGeometry y="26" width="160" height="34" as="geometry" />
        </mxCell>
        <mxCell id="MVc7WZ1SkRlFC5I5kt_B-31" value="" style="line;strokeWidth=1;fillColor=none;align=left;verticalAlign=middle;spacingTop=-1;spacingLeft=3;spacingRight=3;rotatable=0;labelPosition=right;points=[];portConstraint=eastwest;strokeColor=inherit;fontStyle=0" parent="MVc7WZ1SkRlFC5I5kt_B-29" vertex="1">
          <mxGeometry y="60" width="160" height="30" as="geometry" />
        </mxCell>
        <mxCell id="MVc7WZ1SkRlFC5I5kt_B-32" value="Credit Officer" style="swimlane;fontStyle=1;align=center;verticalAlign=top;childLayout=stackLayout;horizontal=1;startSize=26;horizontalStack=0;resizeParent=1;resizeParentMax=0;resizeLast=0;collapsible=1;marginBottom=0;whiteSpace=wrap;html=1;" parent="1" vertex="1">
          <mxGeometry x="460" y="245" width="160" height="100" as="geometry" />
        </mxCell>
        <mxCell id="MVc7WZ1SkRlFC5I5kt_B-33" value="&lt;div&gt;&lt;span style=&quot;background-color: transparent; color: light-dark(rgb(0, 0, 0), rgb(255, 255, 255));&quot;&gt;isCommentator&lt;/span&gt;&lt;br&gt;&lt;/div&gt;&lt;div&gt;&lt;span style=&quot;background-color: transparent; color: light-dark(rgb(0, 0, 0), rgb(255, 255, 255));&quot;&gt;&lt;br&gt;&lt;/span&gt;&lt;/div&gt;&lt;div&gt;&lt;br&gt;&lt;/div&gt;" style="text;strokeColor=none;fillColor=none;align=left;verticalAlign=top;spacingLeft=4;spacingRight=4;overflow=hidden;rotatable=0;points=[[0,0.5],[1,0.5]];portConstraint=eastwest;whiteSpace=wrap;html=1;fontStyle=0" parent="MVc7WZ1SkRlFC5I5kt_B-32" vertex="1">
          <mxGeometry y="26" width="160" height="44" as="geometry" />
        </mxCell>
        <mxCell id="MVc7WZ1SkRlFC5I5kt_B-34" value="" style="line;strokeWidth=1;fillColor=none;align=left;verticalAlign=middle;spacingTop=-1;spacingLeft=3;spacingRight=3;rotatable=0;labelPosition=right;points=[];portConstraint=eastwest;strokeColor=inherit;fontStyle=0" parent="MVc7WZ1SkRlFC5I5kt_B-32" vertex="1">
          <mxGeometry y="70" width="160" height="30" as="geometry" />
        </mxCell>
        <mxCell id="MVc7WZ1SkRlFC5I5kt_B-35" value="Treasury Analyst" style="swimlane;fontStyle=1;align=center;verticalAlign=top;childLayout=stackLayout;horizontal=1;startSize=26;horizontalStack=0;resizeParent=1;resizeParentMax=0;resizeLast=0;collapsible=1;marginBottom=0;whiteSpace=wrap;html=1;" parent="1" vertex="1">
          <mxGeometry x="-110" y="245" width="160" height="90" as="geometry" />
        </mxCell>
        <mxCell id="MVc7WZ1SkRlFC5I5kt_B-36" value="bankAccountsAccessible&lt;div&gt;&lt;br&gt;&lt;/div&gt;" style="text;strokeColor=none;fillColor=none;align=left;verticalAlign=top;spacingLeft=4;spacingRight=4;overflow=hidden;rotatable=0;points=[[0,0.5],[1,0.5]];portConstraint=eastwest;whiteSpace=wrap;html=1;fontStyle=0" parent="MVc7WZ1SkRlFC5I5kt_B-35" vertex="1">
          <mxGeometry y="26" width="160" height="34" as="geometry" />
        </mxCell>
        <mxCell id="MVc7WZ1SkRlFC5I5kt_B-37" value="" style="line;strokeWidth=1;fillColor=none;align=left;verticalAlign=middle;spacingTop=-1;spacingLeft=3;spacingRight=3;rotatable=0;labelPosition=right;points=[];portConstraint=eastwest;strokeColor=inherit;fontStyle=0" parent="MVc7WZ1SkRlFC5I5kt_B-35" vertex="1">
          <mxGeometry y="60" width="160" height="30" as="geometry" />
        </mxCell>
        <mxCell id="MVc7WZ1SkRlFC5I5kt_B-38" value="Address" style="swimlane;fontStyle=1;align=center;verticalAlign=top;childLayout=stackLayout;horizontal=1;startSize=26;horizontalStack=0;resizeParent=1;resizeParentMax=0;resizeLast=0;collapsible=1;marginBottom=0;whiteSpace=wrap;html=1;" parent="1" vertex="1">
          <mxGeometry x="570" y="-20" width="160" height="180" as="geometry" />
        </mxCell>
        <mxCell id="MVc7WZ1SkRlFC5I5kt_B-39" value="street1&lt;div&gt;street2&lt;/div&gt;&lt;div&gt;buildingName&lt;/div&gt;&lt;div&gt;apptNo&lt;/div&gt;&lt;div&gt;postOfficeBox&lt;/div&gt;&lt;div&gt;cityName&lt;/div&gt;&lt;div&gt;stateName&lt;/div&gt;&lt;div&gt;zipCode&lt;/div&gt;" style="text;strokeColor=none;fillColor=none;align=left;verticalAlign=top;spacingLeft=4;spacingRight=4;overflow=hidden;rotatable=0;points=[[0,0.5],[1,0.5]];portConstraint=eastwest;whiteSpace=wrap;html=1;fontStyle=0" parent="MVc7WZ1SkRlFC5I5kt_B-38" vertex="1">
          <mxGeometry y="26" width="160" height="124" as="geometry" />
        </mxCell>
        <mxCell id="MVc7WZ1SkRlFC5I5kt_B-40" value="" style="line;strokeWidth=1;fillColor=none;align=left;verticalAlign=middle;spacingTop=-1;spacingLeft=3;spacingRight=3;rotatable=0;labelPosition=right;points=[];portConstraint=eastwest;strokeColor=inherit;fontStyle=0" parent="MVc7WZ1SkRlFC5I5kt_B-38" vertex="1">
          <mxGeometry y="150" width="160" height="30" as="geometry" />
        </mxCell>
        <mxCell id="MVc7WZ1SkRlFC5I5kt_B-44" value="Loan" style="swimlane;fontStyle=1;align=center;verticalAlign=top;childLayout=stackLayout;horizontal=1;startSize=26;horizontalStack=0;resizeParent=1;resizeParentMax=0;resizeLast=0;collapsible=1;marginBottom=0;whiteSpace=wrap;html=1;" parent="1" vertex="1">
          <mxGeometry x="70" y="431" width="160" height="100" as="geometry" />
        </mxCell>
        <mxCell id="MVc7WZ1SkRlFC5I5kt_B-45" value="loanNumber&lt;div&gt;loanNickname&lt;/div&gt;&lt;div&gt;loanState&lt;/div&gt;" style="text;strokeColor=none;fillColor=none;align=left;verticalAlign=top;spacingLeft=4;spacingRight=4;overflow=hidden;rotatable=0;points=[[0,0.5],[1,0.5]];portConstraint=eastwest;whiteSpace=wrap;html=1;fontStyle=0" parent="MVc7WZ1SkRlFC5I5kt_B-44" vertex="1">
          <mxGeometry y="26" width="160" height="44" as="geometry" />
        </mxCell>
        <mxCell id="MVc7WZ1SkRlFC5I5kt_B-46" value="" style="line;strokeWidth=1;fillColor=none;align=left;verticalAlign=middle;spacingTop=-1;spacingLeft=3;spacingRight=3;rotatable=0;labelPosition=right;points=[];portConstraint=eastwest;strokeColor=inherit;fontStyle=0" parent="MVc7WZ1SkRlFC5I5kt_B-44" vertex="1">
          <mxGeometry y="70" width="160" height="30" as="geometry" />
        </mxCell>
        <mxCell id="MVc7WZ1SkRlFC5I5kt_B-47" value="Portfolio" style="swimlane;fontStyle=1;align=center;verticalAlign=top;childLayout=stackLayout;horizontal=1;startSize=26;horizontalStack=0;resizeParent=1;resizeParentMax=0;resizeLast=0;collapsible=1;marginBottom=0;whiteSpace=wrap;html=1;" parent="1" vertex="1">
          <mxGeometry x="-350" y="410" width="160" height="90" as="geometry" />
        </mxCell>
        <mxCell id="MVc7WZ1SkRlFC5I5kt_B-48" value="portfolioName&lt;div&gt;portfolioNumber&lt;/div&gt;" style="text;strokeColor=none;fillColor=none;align=left;verticalAlign=top;spacingLeft=4;spacingRight=4;overflow=hidden;rotatable=0;points=[[0,0.5],[1,0.5]];portConstraint=eastwest;whiteSpace=wrap;html=1;fontStyle=0" parent="MVc7WZ1SkRlFC5I5kt_B-47" vertex="1">
          <mxGeometry y="26" width="160" height="34" as="geometry" />
        </mxCell>
        <mxCell id="MVc7WZ1SkRlFC5I5kt_B-49" value="" style="line;strokeWidth=1;fillColor=none;align=left;verticalAlign=middle;spacingTop=-1;spacingLeft=3;spacingRight=3;rotatable=0;labelPosition=right;points=[];portConstraint=eastwest;strokeColor=inherit;fontStyle=0" parent="MVc7WZ1SkRlFC5I5kt_B-47" vertex="1">
          <mxGeometry y="60" width="160" height="30" as="geometry" />
        </mxCell>
        <mxCell id="MVc7WZ1SkRlFC5I5kt_B-59" value="Financial Info" style="swimlane;fontStyle=1;align=center;verticalAlign=top;childLayout=stackLayout;horizontal=1;startSize=26;horizontalStack=0;resizeParent=1;resizeParentMax=0;resizeLast=0;collapsible=1;marginBottom=0;whiteSpace=wrap;html=1;" parent="1" vertex="1">
          <mxGeometry x="-153" y="517" width="160" height="250" as="geometry" />
        </mxCell>
        <mxCell id="MVc7WZ1SkRlFC5I5kt_B-60" value="asOfDate&lt;div&gt;collateralCashFlows&lt;/div&gt;&lt;div&gt;occupancyRate&lt;/div&gt;&lt;div&gt;borrowerNetWorth&lt;/div&gt;&lt;div&gt;borrowerExcessLiquidity&lt;/div&gt;&lt;div&gt;&lt;span style=&quot;background-color: transparent; color: light-dark(rgb(0, 0, 0), rgb(255, 255, 255));&quot;&gt;covenantType&lt;/span&gt;&lt;br&gt;&lt;/div&gt;&lt;div&gt;&lt;div&gt;covenantThreshold&lt;/div&gt;&lt;div&gt;covenantActualValue&lt;/div&gt;&lt;div&gt;&lt;span style=&quot;background-color: transparent; color: light-dark(rgb(0, 0, 0), rgb(255, 255, 255));&quot;&gt;isCovenantDefault&lt;/span&gt;&lt;br&gt;&lt;/div&gt;&lt;div&gt;&lt;span style=&quot;background-color: transparent; color: light-dark(rgb(0, 0, 0), rgb(255, 255, 255));&quot;&gt;isPymntDefault&lt;/span&gt;&lt;/div&gt;&lt;div&gt;&lt;span style=&quot;background-color: transparent; color: light-dark(rgb(0, 0, 0), rgb(255, 255, 255));&quot;&gt;isPymntDefaultRemedied&lt;/span&gt;&lt;/div&gt;&lt;div&gt;&lt;span style=&quot;background-color: transparent; color: light-dark(rgb(0, 0, 0), rgb(255, 255, 255));&quot;&gt;redemedyDescript&lt;/span&gt;&lt;/div&gt;&lt;div&gt;loanRealizedLoss&lt;/div&gt;&lt;div&gt;&lt;br&gt;&lt;/div&gt;&lt;/div&gt;&lt;div&gt;&lt;div&gt;&lt;br&gt;&lt;div&gt;&lt;br&gt;&lt;/div&gt;&lt;/div&gt;&lt;/div&gt;" style="text;strokeColor=none;fillColor=none;align=left;verticalAlign=top;spacingLeft=4;spacingRight=4;overflow=hidden;rotatable=0;points=[[0,0.5],[1,0.5]];portConstraint=eastwest;whiteSpace=wrap;html=1;fontStyle=0" parent="MVc7WZ1SkRlFC5I5kt_B-59" vertex="1">
          <mxGeometry y="26" width="160" height="194" as="geometry" />
        </mxCell>
        <mxCell id="MVc7WZ1SkRlFC5I5kt_B-61" value="" style="line;strokeWidth=1;fillColor=none;align=left;verticalAlign=middle;spacingTop=-1;spacingLeft=3;spacingRight=3;rotatable=0;labelPosition=right;points=[];portConstraint=eastwest;strokeColor=inherit;fontStyle=0" parent="MVc7WZ1SkRlFC5I5kt_B-59" vertex="1">
          <mxGeometry y="220" width="160" height="30" as="geometry" />
        </mxCell>
        <mxCell id="MVc7WZ1SkRlFC5I5kt_B-65" value="Loan Details" style="swimlane;fontStyle=1;align=center;verticalAlign=top;childLayout=stackLayout;horizontal=1;startSize=26;horizontalStack=0;resizeParent=1;resizeParentMax=0;resizeLast=0;collapsible=1;marginBottom=0;whiteSpace=wrap;html=1;" parent="1" vertex="1">
          <mxGeometry x="-350" y="728" width="160" height="220" as="geometry" />
        </mxCell>
        <mxCell id="MVc7WZ1SkRlFC5I5kt_B-66" value="&lt;div&gt;modificationEffectiveDate&lt;/div&gt;closingDate&lt;div&gt;maturityDate&lt;/div&gt;&lt;div&gt;pymtFrequency&lt;/div&gt;&lt;div&gt;pymtType&lt;/div&gt;&lt;div&gt;prepayPenaltyType&lt;/div&gt;&lt;div&gt;prepayPenaltyAmt&lt;br&gt;&lt;div&gt;dateModified&lt;/div&gt;&lt;div&gt;closingFee&lt;/div&gt;&lt;div&gt;originatorName&lt;/div&gt;&lt;div&gt;intRate&lt;/div&gt;&lt;div&gt;&lt;br&gt;&lt;/div&gt;&lt;div&gt;&lt;br&gt;&lt;div&gt;&lt;br&gt;&lt;/div&gt;&lt;/div&gt;&lt;/div&gt;" style="text;strokeColor=none;fillColor=none;align=left;verticalAlign=top;spacingLeft=4;spacingRight=4;overflow=hidden;rotatable=0;points=[[0,0.5],[1,0.5]];portConstraint=eastwest;whiteSpace=wrap;html=1;fontStyle=0" parent="MVc7WZ1SkRlFC5I5kt_B-65" vertex="1">
          <mxGeometry y="26" width="160" height="164" as="geometry" />
        </mxCell>
        <mxCell id="MVc7WZ1SkRlFC5I5kt_B-67" value="" style="line;strokeWidth=1;fillColor=none;align=left;verticalAlign=middle;spacingTop=-1;spacingLeft=3;spacingRight=3;rotatable=0;labelPosition=right;points=[];portConstraint=eastwest;strokeColor=inherit;fontStyle=0" parent="MVc7WZ1SkRlFC5I5kt_B-65" vertex="1">
          <mxGeometry y="190" width="160" height="30" as="geometry" />
        </mxCell>
        <mxCell id="MVc7WZ1SkRlFC5I5kt_B-68" value="Cash Flows" style="swimlane;fontStyle=1;align=center;verticalAlign=top;childLayout=stackLayout;horizontal=1;startSize=26;horizontalStack=0;resizeParent=1;resizeParentMax=0;resizeLast=0;collapsible=1;marginBottom=0;whiteSpace=wrap;html=1;" parent="1" vertex="1">
          <mxGeometry x="70" y="571" width="160" height="90" as="geometry" />
        </mxCell>
        <mxCell id="MVc7WZ1SkRlFC5I5kt_B-69" value="asOfDate&lt;div&gt;&lt;br&gt;&lt;/div&gt;" style="text;strokeColor=none;fillColor=none;align=left;verticalAlign=top;spacingLeft=4;spacingRight=4;overflow=hidden;rotatable=0;points=[[0,0.5],[1,0.5]];portConstraint=eastwest;whiteSpace=wrap;html=1;fontStyle=0" parent="MVc7WZ1SkRlFC5I5kt_B-68" vertex="1">
          <mxGeometry y="26" width="160" height="34" as="geometry" />
        </mxCell>
        <mxCell id="MVc7WZ1SkRlFC5I5kt_B-70" value="" style="line;strokeWidth=1;fillColor=none;align=left;verticalAlign=middle;spacingTop=-1;spacingLeft=3;spacingRight=3;rotatable=0;labelPosition=right;points=[];portConstraint=eastwest;strokeColor=inherit;fontStyle=0" parent="MVc7WZ1SkRlFC5I5kt_B-68" vertex="1">
          <mxGeometry y="60" width="160" height="30" as="geometry" />
        </mxCell>
        <mxCell id="kF3sTlDbWWNvE3L73D8_-112" value="" style="endArrow=diamondThin;html=1;rounded=0;exitX=-0.004;exitY=0.19;exitDx=0;exitDy=0;exitPerimeter=0;endFill=1;startSize=6;endSize=10;fontStyle=0;jumpStyle=arc;" parent="MVc7WZ1SkRlFC5I5kt_B-68" source="MVc7WZ1SkRlFC5I5kt_B-91" edge="1">
          <mxGeometry width="50" height="50" relative="1" as="geometry">
            <mxPoint x="150" y="49" as="sourcePoint" />
            <mxPoint x="140" y="-41" as="targetPoint" />
            <Array as="points">
              <mxPoint x="140" y="-9" />
            </Array>
          </mxGeometry>
        </mxCell>
        <mxCell id="kF3sTlDbWWNvE3L73D8_-113" value="&lt;span&gt;Contains&lt;/span&gt;" style="edgeLabel;html=1;align=center;verticalAlign=middle;resizable=0;points=[];fontStyle=0" parent="kF3sTlDbWWNvE3L73D8_-112" vertex="1" connectable="0">
          <mxGeometry x="-0.6338" y="-2" relative="1" as="geometry">
            <mxPoint x="-2" y="-4" as="offset" />
          </mxGeometry>
        </mxCell>
        <mxCell id="MVc7WZ1SkRlFC5I5kt_B-71" value="Collateral" style="swimlane;fontStyle=1;align=center;verticalAlign=top;childLayout=stackLayout;horizontal=1;startSize=26;horizontalStack=0;resizeParent=1;resizeParentMax=0;resizeLast=0;collapsible=1;marginBottom=0;whiteSpace=wrap;html=1;" parent="1" vertex="1">
          <mxGeometry x="-350" y="517" width="160" height="190" as="geometry" />
        </mxCell>
        <mxCell id="MVc7WZ1SkRlFC5I5kt_B-72" value="&lt;div&gt;addedDate&lt;/div&gt;&lt;div&gt;removedDate&lt;/div&gt;&lt;div&gt;legalEffectiveDate&lt;/div&gt;&lt;div&gt;collateralName&lt;/div&gt;&lt;div&gt;collateralDescription&lt;/div&gt;&lt;div&gt;collateralType&lt;/div&gt;&lt;div&gt;appraisedValue&lt;/div&gt;&lt;div&gt;appraisalDate&lt;/div&gt;&lt;div&gt;areFinancialsRequired&lt;/div&gt;&lt;div&gt;&lt;br&gt;&lt;/div&gt;&lt;div&gt;&lt;br&gt;&lt;/div&gt;" style="text;strokeColor=none;fillColor=none;align=left;verticalAlign=top;spacingLeft=4;spacingRight=4;overflow=hidden;rotatable=0;points=[[0,0.5],[1,0.5]];portConstraint=eastwest;whiteSpace=wrap;html=1;fontStyle=0" parent="MVc7WZ1SkRlFC5I5kt_B-71" vertex="1">
          <mxGeometry y="26" width="160" height="134" as="geometry" />
        </mxCell>
        <mxCell id="MVc7WZ1SkRlFC5I5kt_B-73" value="" style="line;strokeWidth=1;fillColor=none;align=left;verticalAlign=middle;spacingTop=-1;spacingLeft=3;spacingRight=3;rotatable=0;labelPosition=right;points=[];portConstraint=eastwest;strokeColor=inherit;fontStyle=0" parent="MVc7WZ1SkRlFC5I5kt_B-71" vertex="1">
          <mxGeometry y="160" width="160" height="30" as="geometry" />
        </mxCell>
        <mxCell id="MVc7WZ1SkRlFC5I5kt_B-77" value="Invoice" style="swimlane;fontStyle=1;align=center;verticalAlign=top;childLayout=stackLayout;horizontal=1;startSize=26;horizontalStack=0;resizeParent=1;resizeParentMax=0;resizeLast=0;collapsible=1;marginBottom=0;whiteSpace=wrap;html=1;" parent="1" vertex="1">
          <mxGeometry x="70" y="860" width="160" height="180" as="geometry" />
        </mxCell>
        <mxCell id="MVc7WZ1SkRlFC5I5kt_B-78" value="&lt;div&gt;principalDue&lt;/div&gt;&lt;div&gt;interestDue&lt;/div&gt;&lt;div&gt;otherFeesDue&lt;/div&gt;&lt;div&gt;taxEscrowDue&lt;/div&gt;&lt;div&gt;carryoverBalance&lt;/div&gt;&lt;div&gt;totalBalance&lt;/div&gt;&lt;div&gt;date&lt;/div&gt;&lt;div&gt;asOfDate&lt;/div&gt;" style="text;strokeColor=none;fillColor=none;align=left;verticalAlign=top;spacingLeft=4;spacingRight=4;overflow=hidden;rotatable=0;points=[[0,0.5],[1,0.5]];portConstraint=eastwest;whiteSpace=wrap;html=1;fontStyle=0" parent="MVc7WZ1SkRlFC5I5kt_B-77" vertex="1">
          <mxGeometry y="26" width="160" height="124" as="geometry" />
        </mxCell>
        <mxCell id="MVc7WZ1SkRlFC5I5kt_B-79" value="" style="line;strokeWidth=1;fillColor=none;align=left;verticalAlign=middle;spacingTop=-1;spacingLeft=3;spacingRight=3;rotatable=0;labelPosition=right;points=[];portConstraint=eastwest;strokeColor=inherit;fontStyle=0" parent="MVc7WZ1SkRlFC5I5kt_B-77" vertex="1">
          <mxGeometry y="150" width="160" height="30" as="geometry" />
        </mxCell>
        <mxCell id="MVc7WZ1SkRlFC5I5kt_B-84" value="Cash Flow Line Item" style="swimlane;fontStyle=1;align=center;verticalAlign=top;childLayout=stackLayout;horizontal=1;startSize=26;horizontalStack=0;resizeParent=1;resizeParentMax=0;resizeLast=0;collapsible=1;marginBottom=0;whiteSpace=wrap;html=1;" parent="1" vertex="1">
          <mxGeometry x="70" y="703" width="160" height="130" as="geometry" />
        </mxCell>
        <mxCell id="MVc7WZ1SkRlFC5I5kt_B-85" value="&lt;div&gt;&lt;span style=&quot;background-color: transparent; color: light-dark(rgb(0, 0, 0), rgb(255, 255, 255));&quot;&gt;category&lt;/span&gt;&lt;br&gt;&lt;/div&gt;&lt;div&gt;calculatedAmount&lt;/div&gt;&lt;div&gt;Received Amoun&lt;span style=&quot;background-color: transparent; color: light-dark(rgb(0, 0, 0), rgb(255, 255, 255));&quot;&gt;t&lt;/span&gt;&lt;/div&gt;&lt;div&gt;&lt;span style=&quot;background-color: transparent; color: light-dark(rgb(0, 0, 0), rgb(255, 255, 255));&quot;&gt;Expected Date&lt;/span&gt;&lt;/div&gt;&lt;div&gt;&lt;span style=&quot;background-color: transparent; color: light-dark(rgb(0, 0, 0), rgb(255, 255, 255));&quot;&gt;Received Date&lt;/span&gt;&lt;/div&gt;" style="text;strokeColor=none;fillColor=none;align=left;verticalAlign=top;spacingLeft=4;spacingRight=4;overflow=hidden;rotatable=0;points=[[0,0.5],[1,0.5]];portConstraint=eastwest;whiteSpace=wrap;html=1;fontStyle=0" parent="MVc7WZ1SkRlFC5I5kt_B-84" vertex="1">
          <mxGeometry y="26" width="160" height="74" as="geometry" />
        </mxCell>
        <mxCell id="MVc7WZ1SkRlFC5I5kt_B-86" value="" style="line;strokeWidth=1;fillColor=none;align=left;verticalAlign=middle;spacingTop=-1;spacingLeft=3;spacingRight=3;rotatable=0;labelPosition=right;points=[];portConstraint=eastwest;strokeColor=inherit;fontStyle=0" parent="MVc7WZ1SkRlFC5I5kt_B-84" vertex="1">
          <mxGeometry y="100" width="160" height="30" as="geometry" />
        </mxCell>
        <mxCell id="MVc7WZ1SkRlFC5I5kt_B-90" value="Journal Entry" style="swimlane;fontStyle=1;align=center;verticalAlign=top;childLayout=stackLayout;horizontal=1;startSize=26;horizontalStack=0;resizeParent=1;resizeParentMax=0;resizeLast=0;collapsible=1;marginBottom=0;whiteSpace=wrap;html=1;" parent="1" vertex="1">
          <mxGeometry x="650" y="530" width="160" height="90" as="geometry" />
        </mxCell>
        <mxCell id="MVc7WZ1SkRlFC5I5kt_B-91" value="asOfDate&lt;div&gt;&lt;br&gt;&lt;/div&gt;" style="text;strokeColor=none;fillColor=none;align=left;verticalAlign=top;spacingLeft=4;spacingRight=4;overflow=hidden;rotatable=0;points=[[0,0.5],[1,0.5]];portConstraint=eastwest;whiteSpace=wrap;html=1;fontStyle=0" parent="MVc7WZ1SkRlFC5I5kt_B-90" vertex="1">
          <mxGeometry y="26" width="160" height="34" as="geometry" />
        </mxCell>
        <mxCell id="MVc7WZ1SkRlFC5I5kt_B-92" value="" style="line;strokeWidth=1;fillColor=none;align=left;verticalAlign=middle;spacingTop=-1;spacingLeft=3;spacingRight=3;rotatable=0;labelPosition=right;points=[];portConstraint=eastwest;strokeColor=inherit;fontStyle=0" parent="MVc7WZ1SkRlFC5I5kt_B-90" vertex="1">
          <mxGeometry y="60" width="160" height="30" as="geometry" />
        </mxCell>
        <mxCell id="MVc7WZ1SkRlFC5I5kt_B-105" value="Loan Commentary" style="swimlane;fontStyle=1;align=center;verticalAlign=top;childLayout=stackLayout;horizontal=1;startSize=26;horizontalStack=0;resizeParent=1;resizeParentMax=0;resizeLast=0;collapsible=1;marginBottom=0;whiteSpace=wrap;html=1;" parent="1" vertex="1">
          <mxGeometry x="880" y="630" width="160" height="90" as="geometry" />
        </mxCell>
        <mxCell id="MVc7WZ1SkRlFC5I5kt_B-106" value="&lt;div&gt;date&lt;/div&gt;&lt;div&gt;commentaryText&lt;/div&gt;" style="text;strokeColor=none;fillColor=none;align=left;verticalAlign=top;spacingLeft=4;spacingRight=4;overflow=hidden;rotatable=0;points=[[0,0.5],[1,0.5]];portConstraint=eastwest;whiteSpace=wrap;html=1;fontStyle=0" parent="MVc7WZ1SkRlFC5I5kt_B-105" vertex="1">
          <mxGeometry y="26" width="160" height="34" as="geometry" />
        </mxCell>
        <mxCell id="MVc7WZ1SkRlFC5I5kt_B-107" value="" style="line;strokeWidth=1;fillColor=none;align=left;verticalAlign=middle;spacingTop=-1;spacingLeft=3;spacingRight=3;rotatable=0;labelPosition=right;points=[];portConstraint=eastwest;strokeColor=inherit;fontStyle=0" parent="MVc7WZ1SkRlFC5I5kt_B-105" vertex="1">
          <mxGeometry y="60" width="160" height="30" as="geometry" />
        </mxCell>
        <mxCell id="MVc7WZ1SkRlFC5I5kt_B-108" value="Dashboard Manager" style="swimlane;fontStyle=1;align=center;verticalAlign=top;childLayout=stackLayout;horizontal=1;startSize=26;horizontalStack=0;resizeParent=1;resizeParentMax=0;resizeLast=0;collapsible=1;marginBottom=0;whiteSpace=wrap;html=1;" parent="1" vertex="1">
          <mxGeometry x="886" y="240" width="160" height="130" as="geometry" />
        </mxCell>
        <mxCell id="MVc7WZ1SkRlFC5I5kt_B-109" value="viewLayout&lt;div&gt;selections&lt;/div&gt;&lt;div&gt;userMap&lt;/div&gt;&lt;div&gt;userIds&lt;/div&gt;&lt;div&gt;&lt;div&gt;&lt;div&gt;loan&lt;/div&gt;&lt;/div&gt;&lt;/div&gt;" style="text;strokeColor=none;fillColor=none;align=left;verticalAlign=top;spacingLeft=4;spacingRight=4;overflow=hidden;rotatable=0;points=[[0,0.5],[1,0.5]];portConstraint=eastwest;whiteSpace=wrap;html=1;fontStyle=0" parent="MVc7WZ1SkRlFC5I5kt_B-108" vertex="1">
          <mxGeometry y="26" width="160" height="74" as="geometry" />
        </mxCell>
        <mxCell id="MVc7WZ1SkRlFC5I5kt_B-110" value="" style="line;strokeWidth=1;fillColor=none;align=left;verticalAlign=middle;spacingTop=-1;spacingLeft=3;spacingRight=3;rotatable=0;labelPosition=right;points=[];portConstraint=eastwest;strokeColor=inherit;fontStyle=0" parent="MVc7WZ1SkRlFC5I5kt_B-108" vertex="1">
          <mxGeometry y="100" width="160" height="30" as="geometry" />
        </mxCell>
        <mxCell id="MVc7WZ1SkRlFC5I5kt_B-117" value="Journal Entry Line Item" style="swimlane;fontStyle=1;align=center;verticalAlign=top;childLayout=stackLayout;horizontal=1;startSize=26;horizontalStack=0;resizeParent=1;resizeParentMax=0;resizeLast=0;collapsible=1;marginBottom=0;whiteSpace=wrap;html=1;" parent="1" vertex="1">
          <mxGeometry x="650" y="667" width="160" height="100" as="geometry" />
        </mxCell>
        <mxCell id="MVc7WZ1SkRlFC5I5kt_B-118" value="&lt;div&gt;account&lt;/div&gt;amount&lt;div&gt;description&lt;br&gt;&lt;div&gt;&lt;br&gt;&lt;div&gt;&lt;br&gt;&lt;/div&gt;&lt;/div&gt;&lt;/div&gt;" style="text;strokeColor=none;fillColor=none;align=left;verticalAlign=top;spacingLeft=4;spacingRight=4;overflow=hidden;rotatable=0;points=[[0,0.5],[1,0.5]];portConstraint=eastwest;whiteSpace=wrap;html=1;fontStyle=0" parent="MVc7WZ1SkRlFC5I5kt_B-117" vertex="1">
          <mxGeometry y="26" width="160" height="44" as="geometry" />
        </mxCell>
        <mxCell id="MVc7WZ1SkRlFC5I5kt_B-119" value="" style="line;strokeWidth=1;fillColor=none;align=left;verticalAlign=middle;spacingTop=-1;spacingLeft=3;spacingRight=3;rotatable=0;labelPosition=right;points=[];portConstraint=eastwest;strokeColor=inherit;fontStyle=0" parent="MVc7WZ1SkRlFC5I5kt_B-117" vertex="1">
          <mxGeometry y="70" width="160" height="30" as="geometry" />
        </mxCell>
        <mxCell id="MVc7WZ1SkRlFC5I5kt_B-120" value="Reporting System Gateway" style="swimlane;fontStyle=1;align=center;verticalAlign=top;childLayout=stackLayout;horizontal=1;startSize=26;horizontalStack=0;resizeParent=1;resizeParentMax=0;resizeLast=0;collapsible=1;marginBottom=0;whiteSpace=wrap;html=1;" parent="1" vertex="1">
          <mxGeometry x="656" y="377" width="160" height="90" as="geometry" />
        </mxCell>
        <mxCell id="MVc7WZ1SkRlFC5I5kt_B-121" value="reportSysURL&lt;div&gt;cnnctTimeOut&lt;/div&gt;" style="text;strokeColor=none;fillColor=none;align=left;verticalAlign=top;spacingLeft=4;spacingRight=4;overflow=hidden;rotatable=0;points=[[0,0.5],[1,0.5]];portConstraint=eastwest;whiteSpace=wrap;html=1;fontStyle=0" parent="MVc7WZ1SkRlFC5I5kt_B-120" vertex="1">
          <mxGeometry y="26" width="160" height="34" as="geometry" />
        </mxCell>
        <mxCell id="MVc7WZ1SkRlFC5I5kt_B-122" value="" style="line;strokeWidth=1;fillColor=none;align=left;verticalAlign=middle;spacingTop=-1;spacingLeft=3;spacingRight=3;rotatable=0;labelPosition=right;points=[];portConstraint=eastwest;strokeColor=inherit;fontStyle=0" parent="MVc7WZ1SkRlFC5I5kt_B-120" vertex="1">
          <mxGeometry y="60" width="160" height="30" as="geometry" />
        </mxCell>
        <mxCell id="MVc7WZ1SkRlFC5I5kt_B-123" value="Corp Acc Sys Gateway" style="swimlane;fontStyle=1;align=center;verticalAlign=top;childLayout=stackLayout;horizontal=1;startSize=26;horizontalStack=0;resizeParent=1;resizeParentMax=0;resizeLast=0;collapsible=1;marginBottom=0;whiteSpace=wrap;html=1;" parent="1" vertex="1">
          <mxGeometry x="880" y="506" width="160" height="90" as="geometry" />
        </mxCell>
        <mxCell id="MVc7WZ1SkRlFC5I5kt_B-124" value="accSysURL&lt;div&gt;cnnctTimeOut&lt;/div&gt;" style="text;strokeColor=none;fillColor=none;align=left;verticalAlign=top;spacingLeft=4;spacingRight=4;overflow=hidden;rotatable=0;points=[[0,0.5],[1,0.5]];portConstraint=eastwest;whiteSpace=wrap;html=1;fontStyle=0" parent="MVc7WZ1SkRlFC5I5kt_B-123" vertex="1">
          <mxGeometry y="26" width="160" height="34" as="geometry" />
        </mxCell>
        <mxCell id="MVc7WZ1SkRlFC5I5kt_B-125" value="" style="line;strokeWidth=1;fillColor=none;align=left;verticalAlign=middle;spacingTop=-1;spacingLeft=3;spacingRight=3;rotatable=0;labelPosition=right;points=[];portConstraint=eastwest;strokeColor=inherit;fontStyle=0" parent="MVc7WZ1SkRlFC5I5kt_B-123" vertex="1">
          <mxGeometry y="60" width="160" height="30" as="geometry" />
        </mxCell>
        <mxCell id="MVc7WZ1SkRlFC5I5kt_B-126" value="Email Gateway" style="swimlane;fontStyle=1;align=center;verticalAlign=top;childLayout=stackLayout;horizontal=1;startSize=26;horizontalStack=0;resizeParent=1;resizeParentMax=0;resizeLast=0;collapsible=1;marginBottom=0;whiteSpace=wrap;html=1;" parent="1" vertex="1">
          <mxGeometry x="880" y="858" width="160" height="90" as="geometry" />
        </mxCell>
        <mxCell id="MVc7WZ1SkRlFC5I5kt_B-127" value="&lt;div&gt;emailSysAddress&lt;/div&gt;&lt;div&gt;cnnctTimeOut&lt;/div&gt;" style="text;strokeColor=none;fillColor=none;align=left;verticalAlign=top;spacingLeft=4;spacingRight=4;overflow=hidden;rotatable=0;points=[[0,0.5],[1,0.5]];portConstraint=eastwest;whiteSpace=wrap;html=1;fontStyle=0" parent="MVc7WZ1SkRlFC5I5kt_B-126" vertex="1">
          <mxGeometry y="26" width="160" height="34" as="geometry" />
        </mxCell>
        <mxCell id="MVc7WZ1SkRlFC5I5kt_B-128" value="" style="line;strokeWidth=1;fillColor=none;align=left;verticalAlign=middle;spacingTop=-1;spacingLeft=3;spacingRight=3;rotatable=0;labelPosition=right;points=[];portConstraint=eastwest;strokeColor=inherit;fontStyle=0" parent="MVc7WZ1SkRlFC5I5kt_B-126" vertex="1">
          <mxGeometry y="60" width="160" height="30" as="geometry" />
        </mxCell>
        <mxCell id="MVc7WZ1SkRlFC5I5kt_B-129" value="Treasury Report Processor" style="swimlane;fontStyle=1;align=center;verticalAlign=top;childLayout=stackLayout;horizontal=1;startSize=26;horizontalStack=0;resizeParent=1;resizeParentMax=0;resizeLast=0;collapsible=1;marginBottom=0;whiteSpace=wrap;html=1;" parent="1" vertex="1">
          <mxGeometry x="350" y="793" width="160" height="90" as="geometry" />
        </mxCell>
        <mxCell id="MVc7WZ1SkRlFC5I5kt_B-130" value="&lt;div&gt;formattedReportData&lt;/div&gt;" style="text;strokeColor=none;fillColor=none;align=left;verticalAlign=top;spacingLeft=4;spacingRight=4;overflow=hidden;rotatable=0;points=[[0,0.5],[1,0.5]];portConstraint=eastwest;whiteSpace=wrap;html=1;fontStyle=0" parent="MVc7WZ1SkRlFC5I5kt_B-129" vertex="1">
          <mxGeometry y="26" width="160" height="34" as="geometry" />
        </mxCell>
        <mxCell id="MVc7WZ1SkRlFC5I5kt_B-131" value="" style="line;strokeWidth=1;fillColor=none;align=left;verticalAlign=middle;spacingTop=-1;spacingLeft=3;spacingRight=3;rotatable=0;labelPosition=right;points=[];portConstraint=eastwest;strokeColor=inherit;fontStyle=0" parent="MVc7WZ1SkRlFC5I5kt_B-129" vertex="1">
          <mxGeometry y="60" width="160" height="30" as="geometry" />
        </mxCell>
        <mxCell id="MVc7WZ1SkRlFC5I5kt_B-135" value="Amortization Schedule" style="swimlane;fontStyle=1;align=center;verticalAlign=top;childLayout=stackLayout;horizontal=1;startSize=26;horizontalStack=0;resizeParent=1;resizeParentMax=0;resizeLast=0;collapsible=1;marginBottom=0;whiteSpace=wrap;html=1;" parent="1" vertex="1">
          <mxGeometry x="-153" y="789" width="160" height="80" as="geometry" />
        </mxCell>
        <mxCell id="MVc7WZ1SkRlFC5I5kt_B-136" value="asOfDate&lt;div&gt;&lt;br&gt;&lt;/div&gt;&lt;div&gt;&lt;div&gt;&lt;br&gt;&lt;/div&gt;&lt;/div&gt;" style="text;strokeColor=none;fillColor=none;align=left;verticalAlign=top;spacingLeft=4;spacingRight=4;overflow=hidden;rotatable=0;points=[[0,0.5],[1,0.5]];portConstraint=eastwest;whiteSpace=wrap;html=1;fontStyle=0" parent="MVc7WZ1SkRlFC5I5kt_B-135" vertex="1">
          <mxGeometry y="26" width="160" height="24" as="geometry" />
        </mxCell>
        <mxCell id="MVc7WZ1SkRlFC5I5kt_B-137" value="" style="line;strokeWidth=1;fillColor=none;align=left;verticalAlign=middle;spacingTop=-1;spacingLeft=3;spacingRight=3;rotatable=0;labelPosition=right;points=[];portConstraint=eastwest;strokeColor=inherit;fontStyle=0" parent="MVc7WZ1SkRlFC5I5kt_B-135" vertex="1">
          <mxGeometry y="50" width="160" height="30" as="geometry" />
        </mxCell>
        <mxCell id="E4u7SWDCAfa03cuSUIF7-1" value="" style="endArrow=none;html=1;rounded=0;edgeStyle=orthogonalEdgeStyle;jumpStyle=none;fontStyle=0" parent="1" edge="1">
          <mxGeometry width="50" height="50" relative="1" as="geometry">
            <mxPoint x="-220" y="215" as="sourcePoint" />
            <mxPoint x="540" y="215" as="targetPoint" />
          </mxGeometry>
        </mxCell>
        <mxCell id="E4u7SWDCAfa03cuSUIF7-2" value="" style="endArrow=none;html=1;rounded=0;exitX=0.5;exitY=0;exitDx=0;exitDy=0;fontStyle=0" parent="1" source="MVc7WZ1SkRlFC5I5kt_B-35" edge="1">
          <mxGeometry width="50" height="50" relative="1" as="geometry">
            <mxPoint x="490" y="365" as="sourcePoint" />
            <mxPoint x="-30" y="215" as="targetPoint" />
          </mxGeometry>
        </mxCell>
        <mxCell id="E4u7SWDCAfa03cuSUIF7-14" value="Is A" style="edgeLabel;html=1;align=center;verticalAlign=middle;resizable=0;points=[];fontFamily=Helvetica;fontSize=11;fontColor=default;labelBackgroundColor=default;fontStyle=0" parent="E4u7SWDCAfa03cuSUIF7-2" vertex="1" connectable="0">
          <mxGeometry x="-0.0784" y="-3" relative="1" as="geometry">
            <mxPoint as="offset" />
          </mxGeometry>
        </mxCell>
        <mxCell id="E4u7SWDCAfa03cuSUIF7-3" value="" style="endArrow=none;html=1;rounded=0;exitX=0.5;exitY=0;exitDx=0;exitDy=0;fontStyle=0" parent="1" source="MVc7WZ1SkRlFC5I5kt_B-26" edge="1">
          <mxGeometry width="50" height="50" relative="1" as="geometry">
            <mxPoint x="490" y="365" as="sourcePoint" />
            <mxPoint x="-220" y="215" as="targetPoint" />
          </mxGeometry>
        </mxCell>
        <mxCell id="E4u7SWDCAfa03cuSUIF7-15" value="Is A" style="edgeLabel;html=1;align=center;verticalAlign=middle;resizable=0;points=[];fontFamily=Helvetica;fontSize=11;fontColor=default;labelBackgroundColor=default;fontStyle=0" parent="E4u7SWDCAfa03cuSUIF7-3" vertex="1" connectable="0">
          <mxGeometry y="1" relative="1" as="geometry">
            <mxPoint as="offset" />
          </mxGeometry>
        </mxCell>
        <mxCell id="E4u7SWDCAfa03cuSUIF7-4" value="" style="endArrow=none;html=1;rounded=0;exitX=0.5;exitY=0;exitDx=0;exitDy=0;fontStyle=0" parent="1" edge="1">
          <mxGeometry width="50" height="50" relative="1" as="geometry">
            <mxPoint x="158" y="245" as="sourcePoint" />
            <mxPoint x="158" y="215" as="targetPoint" />
          </mxGeometry>
        </mxCell>
        <mxCell id="E4u7SWDCAfa03cuSUIF7-16" value="Is A" style="edgeLabel;html=1;align=center;verticalAlign=middle;resizable=0;points=[];fontFamily=Helvetica;fontSize=11;fontColor=default;labelBackgroundColor=default;fontStyle=0" parent="E4u7SWDCAfa03cuSUIF7-4" vertex="1" connectable="0">
          <mxGeometry x="0.2353" relative="1" as="geometry">
            <mxPoint y="4" as="offset" />
          </mxGeometry>
        </mxCell>
        <mxCell id="E4u7SWDCAfa03cuSUIF7-5" value="" style="endArrow=none;html=1;rounded=0;exitX=0.5;exitY=0;exitDx=0;exitDy=0;fontStyle=0" parent="1" source="MVc7WZ1SkRlFC5I5kt_B-23" edge="1">
          <mxGeometry width="50" height="50" relative="1" as="geometry">
            <mxPoint x="348.83" y="241" as="sourcePoint" />
            <mxPoint x="349" y="215" as="targetPoint" />
          </mxGeometry>
        </mxCell>
        <mxCell id="E4u7SWDCAfa03cuSUIF7-17" value="Is A" style="edgeLabel;html=1;align=center;verticalAlign=middle;resizable=0;points=[];fontFamily=Helvetica;fontSize=11;fontColor=default;labelBackgroundColor=default;fontStyle=0" parent="E4u7SWDCAfa03cuSUIF7-5" vertex="1" connectable="0">
          <mxGeometry x="-0.1569" y="1" relative="1" as="geometry">
            <mxPoint y="-3" as="offset" />
          </mxGeometry>
        </mxCell>
        <mxCell id="E4u7SWDCAfa03cuSUIF7-6" value="" style="endArrow=none;html=1;rounded=0;fontStyle=0" parent="1" edge="1">
          <mxGeometry width="50" height="50" relative="1" as="geometry">
            <mxPoint x="540" y="245" as="sourcePoint" />
            <mxPoint x="540" y="215" as="targetPoint" />
          </mxGeometry>
        </mxCell>
        <mxCell id="E4u7SWDCAfa03cuSUIF7-18" value="Is A" style="edgeLabel;html=1;align=center;verticalAlign=middle;resizable=0;points=[];fontFamily=Helvetica;fontSize=11;fontColor=default;labelBackgroundColor=default;fontStyle=0" parent="E4u7SWDCAfa03cuSUIF7-6" vertex="1" connectable="0">
          <mxGeometry y="1" relative="1" as="geometry">
            <mxPoint as="offset" />
          </mxGeometry>
        </mxCell>
        <mxCell id="E4u7SWDCAfa03cuSUIF7-21" value="" style="endArrow=block;html=1;rounded=0;strokeColor=default;align=center;verticalAlign=middle;fontFamily=Helvetica;fontSize=11;fontColor=default;labelBackgroundColor=default;startArrow=none;startFill=0;endFill=0;endSize=10;fontStyle=0" parent="1" edge="1">
          <mxGeometry width="50" height="50" relative="1" as="geometry">
            <mxPoint x="190" y="55" as="sourcePoint" />
            <mxPoint x="220" y="55" as="targetPoint" />
          </mxGeometry>
        </mxCell>
        <mxCell id="E4u7SWDCAfa03cuSUIF7-22" value="" style="endArrow=none;html=1;rounded=0;strokeColor=default;align=center;verticalAlign=middle;fontFamily=Helvetica;fontSize=11;fontColor=default;labelBackgroundColor=default;jumpStyle=arc;fontStyle=0" parent="1" edge="1">
          <mxGeometry width="50" height="50" relative="1" as="geometry">
            <mxPoint x="156" y="128" as="sourcePoint" />
            <mxPoint x="156" y="128" as="targetPoint" />
          </mxGeometry>
        </mxCell>
        <mxCell id="E4u7SWDCAfa03cuSUIF7-26" value="" style="endArrow=none;html=1;rounded=0;strokeColor=default;align=center;verticalAlign=middle;fontFamily=Helvetica;fontSize=11;fontColor=default;labelBackgroundColor=default;exitX=1;exitY=0.5;exitDx=0;exitDy=0;fontStyle=0" parent="1" source="MVc7WZ1SkRlFC5I5kt_B-18" edge="1">
          <mxGeometry width="50" height="50" relative="1" as="geometry">
            <mxPoint x="960" y="260" as="sourcePoint" />
            <mxPoint x="570" y="43" as="targetPoint" />
          </mxGeometry>
        </mxCell>
        <mxCell id="E4u7SWDCAfa03cuSUIF7-27" value="Is Located At" style="edgeLabel;html=1;align=center;verticalAlign=middle;resizable=0;points=[];fontFamily=Helvetica;fontSize=11;fontColor=default;labelBackgroundColor=default;fontStyle=0" parent="E4u7SWDCAfa03cuSUIF7-26" vertex="1" connectable="0">
          <mxGeometry x="-0.0088" y="-1" relative="1" as="geometry">
            <mxPoint x="-4" y="-10" as="offset" />
          </mxGeometry>
        </mxCell>
        <mxCell id="4p38ijROad67MxJ117Um-1" value="" style="triangle;aspect=fixed;fillColor=strokeColor;strokeColor=default;fontStyle=0" parent="1" vertex="1">
          <mxGeometry x="510" y="30" width="4" height="8" as="geometry" />
        </mxCell>
        <mxCell id="4p38ijROad67MxJ117Um-7" value="" style="endArrow=diamondThin;html=1;rounded=0;strokeColor=default;align=center;verticalAlign=middle;fontFamily=Helvetica;fontSize=11;fontColor=default;labelBackgroundColor=default;exitX=0.5;exitY=0;exitDx=0;exitDy=0;entryX=0.5;entryY=1;entryDx=0;entryDy=0;endFill=1;startSize=6;endSize=10;fontStyle=0" parent="1" source="MVc7WZ1SkRlFC5I5kt_B-84" target="MVc7WZ1SkRlFC5I5kt_B-68" edge="1">
          <mxGeometry width="50" height="50" relative="1" as="geometry">
            <mxPoint x="180" y="787" as="sourcePoint" />
            <mxPoint x="490" y="707" as="targetPoint" />
          </mxGeometry>
        </mxCell>
        <mxCell id="9CcUUq_S5qFPirDYBM1m-74" value="Aggregates" style="edgeLabel;html=1;align=center;verticalAlign=middle;resizable=0;points=[];fontStyle=0" parent="4p38ijROad67MxJ117Um-7" vertex="1" connectable="0">
          <mxGeometry x="-0.3063" y="-1" relative="1" as="geometry">
            <mxPoint x="11" y="-5" as="offset" />
          </mxGeometry>
        </mxCell>
        <mxCell id="4p38ijROad67MxJ117Um-10" value="" style="endArrow=none;html=1;rounded=0;strokeColor=default;align=center;verticalAlign=middle;fontFamily=Helvetica;fontSize=11;fontColor=default;labelBackgroundColor=default;startArrow=diamondThin;startFill=1;startSize=10;jumpStyle=arc;exitX=1.002;exitY=0.873;exitDx=0;exitDy=0;exitPerimeter=0;fontStyle=0" parent="1" source="MVc7WZ1SkRlFC5I5kt_B-45" edge="1">
          <mxGeometry width="50" height="50" relative="1" as="geometry">
            <mxPoint x="220" y="559" as="sourcePoint" />
            <mxPoint x="230" y="924" as="targetPoint" />
            <Array as="points">
              <mxPoint x="280" y="496" />
              <mxPoint x="280" y="924" />
            </Array>
          </mxGeometry>
        </mxCell>
        <mxCell id="4p38ijROad67MxJ117Um-17" value="" style="endArrow=diamondThin;html=1;rounded=0;strokeColor=default;align=center;verticalAlign=middle;fontFamily=Helvetica;fontSize=11;fontColor=default;labelBackgroundColor=default;entryX=0.5;entryY=1;entryDx=0;entryDy=0;exitX=0.5;exitY=0;exitDx=0;exitDy=0;endFill=1;startSize=6;endSize=10;fontStyle=0" parent="1" source="MVc7WZ1SkRlFC5I5kt_B-117" target="MVc7WZ1SkRlFC5I5kt_B-90" edge="1">
          <mxGeometry width="50" height="50" relative="1" as="geometry">
            <mxPoint x="490" y="770" as="sourcePoint" />
            <mxPoint x="540" y="720" as="targetPoint" />
          </mxGeometry>
        </mxCell>
        <mxCell id="VessXJ-voPH_thNqwrve-16" value="&lt;span&gt;Contains&lt;/span&gt;" style="edgeLabel;html=1;align=center;verticalAlign=middle;resizable=0;points=[];fontStyle=0" parent="4p38ijROad67MxJ117Um-17" vertex="1" connectable="0">
          <mxGeometry x="-0.4146" relative="1" as="geometry">
            <mxPoint y="-7" as="offset" />
          </mxGeometry>
        </mxCell>
        <mxCell id="9CcUUq_S5qFPirDYBM1m-22" value="Borrower" style="swimlane;fontStyle=1;align=center;verticalAlign=top;childLayout=stackLayout;horizontal=1;startSize=26;horizontalStack=0;resizeParent=1;resizeParentMax=0;resizeLast=0;collapsible=1;marginBottom=0;whiteSpace=wrap;html=1;" parent="1" vertex="1">
          <mxGeometry x="-240" y="-20" width="160" height="110" as="geometry" />
        </mxCell>
        <mxCell id="9CcUUq_S5qFPirDYBM1m-23" value="borrowerName&lt;div&gt;legalEntityType&lt;/div&gt;&lt;div&gt;commentary&lt;/div&gt;" style="text;strokeColor=none;fillColor=none;align=left;verticalAlign=top;spacingLeft=4;spacingRight=4;overflow=hidden;rotatable=0;points=[[0,0.5],[1,0.5]];portConstraint=eastwest;whiteSpace=wrap;html=1;fontStyle=0" parent="9CcUUq_S5qFPirDYBM1m-22" vertex="1">
          <mxGeometry y="26" width="160" height="54" as="geometry" />
        </mxCell>
        <mxCell id="9CcUUq_S5qFPirDYBM1m-24" value="" style="line;strokeWidth=1;fillColor=none;align=left;verticalAlign=middle;spacingTop=-1;spacingLeft=3;spacingRight=3;rotatable=0;labelPosition=right;points=[];portConstraint=eastwest;strokeColor=inherit;fontStyle=0" parent="9CcUUq_S5qFPirDYBM1m-22" vertex="1">
          <mxGeometry y="80" width="160" height="30" as="geometry" />
        </mxCell>
        <mxCell id="9CcUUq_S5qFPirDYBM1m-25" value="" style="endArrow=none;html=1;rounded=0;exitX=0.5;exitY=0;exitDx=0;exitDy=0;entryX=0.669;entryY=0.001;entryDx=0;entryDy=0;entryPerimeter=0;jumpStyle=arc;fontStyle=0" parent="1" source="9CcUUq_S5qFPirDYBM1m-22" target="MVc7WZ1SkRlFC5I5kt_B-38" edge="1">
          <mxGeometry width="50" height="50" relative="1" as="geometry">
            <mxPoint x="-160" y="-40" as="sourcePoint" />
            <mxPoint x="678" y="-20" as="targetPoint" />
            <Array as="points">
              <mxPoint x="-160" y="-50" />
              <mxPoint x="677" y="-50" />
            </Array>
          </mxGeometry>
        </mxCell>
        <mxCell id="VessXJ-voPH_thNqwrve-21" value="Is Located At" style="edgeLabel;html=1;align=center;verticalAlign=middle;resizable=0;points=[];fontStyle=0" parent="9CcUUq_S5qFPirDYBM1m-25" vertex="1" connectable="0">
          <mxGeometry x="0.255" y="1" relative="1" as="geometry">
            <mxPoint x="66" y="11" as="offset" />
          </mxGeometry>
        </mxCell>
        <mxCell id="9CcUUq_S5qFPirDYBM1m-75" value="" style="triangle;aspect=fixed;fillColor=strokeColor;strokeColor=default;rotation=-180;fontStyle=0" parent="1" vertex="1">
          <mxGeometry x="430" y="1064" width="4" height="8" as="geometry" />
        </mxCell>
        <mxCell id="9CcUUq_S5qFPirDYBM1m-92" value="" style="endArrow=none;html=1;rounded=0;exitX=1.003;exitY=0.477;exitDx=0;exitDy=0;exitPerimeter=0;jumpStyle=arc;dashed=1;dashPattern=8 8;fontStyle=0" parent="1" source="MVc7WZ1SkRlFC5I5kt_B-127" edge="1">
          <mxGeometry width="50" height="50" relative="1" as="geometry">
            <mxPoint x="1030" y="900" as="sourcePoint" />
            <mxPoint x="1046" y="298" as="targetPoint" />
            <Array as="points">
              <mxPoint x="1100" y="900" />
              <mxPoint x="1100" y="298" />
            </Array>
          </mxGeometry>
        </mxCell>
        <mxCell id="9CcUUq_S5qFPirDYBM1m-93" value="&lt;span&gt;Sends Commentary&lt;/span&gt;&lt;div&gt;&lt;span&gt;Via&lt;/span&gt;&lt;/div&gt;" style="edgeLabel;html=1;align=center;verticalAlign=middle;resizable=0;points=[];fontStyle=0" parent="9CcUUq_S5qFPirDYBM1m-92" vertex="1" connectable="0">
          <mxGeometry x="0.0262" relative="1" as="geometry">
            <mxPoint x="10" y="195" as="offset" />
          </mxGeometry>
        </mxCell>
        <mxCell id="kF3sTlDbWWNvE3L73D8_-1" value="Journal Entry Processor" style="swimlane;fontStyle=1;align=center;verticalAlign=top;childLayout=stackLayout;horizontal=1;startSize=26;horizontalStack=0;resizeParent=1;resizeParentMax=0;resizeLast=0;collapsible=1;marginBottom=0;whiteSpace=wrap;html=1;" parent="1" vertex="1">
          <mxGeometry x="429" y="378" width="160" height="80" as="geometry" />
        </mxCell>
        <mxCell id="kF3sTlDbWWNvE3L73D8_-2" value="&lt;div&gt;report&lt;/div&gt;" style="text;strokeColor=none;fillColor=none;align=left;verticalAlign=top;spacingLeft=4;spacingRight=4;overflow=hidden;rotatable=0;points=[[0,0.5],[1,0.5]];portConstraint=eastwest;whiteSpace=wrap;html=1;fontStyle=0" parent="kF3sTlDbWWNvE3L73D8_-1" vertex="1">
          <mxGeometry y="26" width="160" height="24" as="geometry" />
        </mxCell>
        <mxCell id="kF3sTlDbWWNvE3L73D8_-3" value="" style="line;strokeWidth=1;fillColor=none;align=left;verticalAlign=middle;spacingTop=-1;spacingLeft=3;spacingRight=3;rotatable=0;labelPosition=right;points=[];portConstraint=eastwest;strokeColor=inherit;fontStyle=0" parent="kF3sTlDbWWNvE3L73D8_-1" vertex="1">
          <mxGeometry y="50" width="160" height="30" as="geometry" />
        </mxCell>
        <mxCell id="kF3sTlDbWWNvE3L73D8_-7" value="" style="endArrow=none;html=1;rounded=0;entryX=0.25;entryY=1;entryDx=0;entryDy=0;exitX=0.369;exitY=0.008;exitDx=0;exitDy=0;jumpStyle=arc;exitPerimeter=0;dashed=1;dashPattern=8 8;fontStyle=0" parent="1" source="kF3sTlDbWWNvE3L73D8_-4" target="kF3sTlDbWWNvE3L73D8_-1" edge="1">
          <mxGeometry width="50" height="50" relative="1" as="geometry">
            <mxPoint x="450" y="680" as="sourcePoint" />
            <mxPoint x="500" y="630" as="targetPoint" />
          </mxGeometry>
        </mxCell>
        <mxCell id="kF3sTlDbWWNvE3L73D8_-8" value="Accesses&lt;div&gt;Data&lt;/div&gt;&lt;div&gt;Via&lt;/div&gt;" style="edgeLabel;html=1;align=center;verticalAlign=middle;resizable=0;points=[];fontStyle=0" parent="kF3sTlDbWWNvE3L73D8_-7" vertex="1" connectable="0">
          <mxGeometry x="0.6145" y="-1" relative="1" as="geometry">
            <mxPoint y="7" as="offset" />
          </mxGeometry>
        </mxCell>
        <mxCell id="kF3sTlDbWWNvE3L73D8_-22" value="" style="endArrow=none;html=1;rounded=0;entryX=-0.018;entryY=0.114;entryDx=0;entryDy=0;entryPerimeter=0;dashed=1;dashPattern=8 8;fontStyle=0" parent="1" target="MVc7WZ1SkRlFC5I5kt_B-90" edge="1">
          <mxGeometry width="50" height="50" relative="1" as="geometry">
            <mxPoint x="550" y="458" as="sourcePoint" />
            <mxPoint x="590" y="630" as="targetPoint" />
            <Array as="points">
              <mxPoint x="550" y="540" />
            </Array>
          </mxGeometry>
        </mxCell>
        <mxCell id="kF3sTlDbWWNvE3L73D8_-114" value="&lt;span&gt;Creates&lt;/span&gt;" style="edgeLabel;html=1;align=center;verticalAlign=middle;resizable=0;points=[];fontStyle=0" parent="kF3sTlDbWWNvE3L73D8_-22" vertex="1" connectable="0">
          <mxGeometry x="0.3448" y="4" relative="1" as="geometry">
            <mxPoint y="-1" as="offset" />
          </mxGeometry>
        </mxCell>
        <mxCell id="kF3sTlDbWWNvE3L73D8_-27" value="" style="endArrow=none;html=1;rounded=0;exitX=0.367;exitY=0.133;exitDx=0;exitDy=0;fontStyle=0;dashed=1;dashPattern=8 8;exitPerimeter=0;entryX=0.833;entryY=0.133;entryDx=0;entryDy=0;entryPerimeter=0;" parent="1" edge="1">
          <mxGeometry width="50" height="50" relative="1" as="geometry">
            <mxPoint x="589" y="409.9899999999998" as="sourcePoint" />
            <mxPoint x="655" y="409.9899999999998" as="targetPoint" />
          </mxGeometry>
        </mxCell>
        <mxCell id="kF3sTlDbWWNvE3L73D8_-28" value="&lt;span&gt;Generates&lt;/span&gt;&lt;div&gt;&lt;span&gt;Reports&lt;/span&gt;&lt;/div&gt;&lt;div&gt;&lt;span&gt;Via&lt;/span&gt;&lt;/div&gt;" style="edgeLabel;html=1;align=center;verticalAlign=middle;resizable=0;points=[];fontStyle=0" parent="kF3sTlDbWWNvE3L73D8_-27" vertex="1" connectable="0">
          <mxGeometry x="0.1801" y="1" relative="1" as="geometry">
            <mxPoint x="-8" y="-20" as="offset" />
          </mxGeometry>
        </mxCell>
        <mxCell id="kF3sTlDbWWNvE3L73D8_-35" value="Invoice Processor" style="swimlane;fontStyle=1;align=center;verticalAlign=top;childLayout=stackLayout;horizontal=1;startSize=26;horizontalStack=0;resizeParent=1;resizeParentMax=0;resizeLast=0;collapsible=1;marginBottom=0;whiteSpace=wrap;html=1;" parent="1" vertex="1">
          <mxGeometry x="560" y="828" width="160" height="120" as="geometry" />
        </mxCell>
        <mxCell id="kF3sTlDbWWNvE3L73D8_-36" value="&lt;div&gt;&lt;span style=&quot;background-color: transparent; color: light-dark(rgb(0, 0, 0), rgb(255, 255, 255));&quot;&gt;selections&lt;/span&gt;&lt;/div&gt;&lt;div&gt;&lt;span style=&quot;background-color: transparent; color: light-dark(rgb(0, 0, 0), rgb(255, 255, 255));&quot;&gt;loans&lt;/span&gt;&lt;/div&gt;&lt;div&gt;&lt;span style=&quot;background-color: transparent; color: light-dark(rgb(0, 0, 0), rgb(255, 255, 255));&quot;&gt;invoiceList&lt;/span&gt;&lt;/div&gt;&lt;div&gt;&lt;span style=&quot;background-color: transparent; color: light-dark(rgb(0, 0, 0), rgb(255, 255, 255));&quot;&gt;loan&lt;/span&gt;&lt;/div&gt;&lt;div&gt;&lt;br&gt;&lt;/div&gt;" style="text;strokeColor=none;fillColor=none;align=left;verticalAlign=top;spacingLeft=4;spacingRight=4;overflow=hidden;rotatable=0;points=[[0,0.5],[1,0.5]];portConstraint=eastwest;whiteSpace=wrap;html=1;fontStyle=0" parent="kF3sTlDbWWNvE3L73D8_-35" vertex="1">
          <mxGeometry y="26" width="160" height="64" as="geometry" />
        </mxCell>
        <mxCell id="kF3sTlDbWWNvE3L73D8_-37" value="" style="line;strokeWidth=1;fillColor=none;align=left;verticalAlign=middle;spacingTop=-1;spacingLeft=3;spacingRight=3;rotatable=0;labelPosition=right;points=[];portConstraint=eastwest;strokeColor=inherit;fontStyle=0" parent="kF3sTlDbWWNvE3L73D8_-35" vertex="1">
          <mxGeometry y="90" width="160" height="30" as="geometry" />
        </mxCell>
        <mxCell id="kF3sTlDbWWNvE3L73D8_-40" value="" style="endArrow=none;html=1;rounded=0;exitX=0.25;exitY=0;exitDx=0;exitDy=0;entryX=0.75;entryY=1;entryDx=0;entryDy=0;dashed=1;dashPattern=8 8;fontStyle=0" parent="1" source="kF3sTlDbWWNvE3L73D8_-35" target="kF3sTlDbWWNvE3L73D8_-4" edge="1">
          <mxGeometry width="50" height="50" relative="1" as="geometry">
            <mxPoint x="520" y="890" as="sourcePoint" />
            <mxPoint x="570" y="840" as="targetPoint" />
            <Array as="points">
              <mxPoint x="600" y="800" />
              <mxPoint x="530" y="800" />
            </Array>
          </mxGeometry>
        </mxCell>
        <mxCell id="kF3sTlDbWWNvE3L73D8_-41" value="&lt;font style=&quot;font-size: 12px;&quot;&gt;&lt;span&gt;Accesses Data Via&lt;/span&gt;&lt;/font&gt;" style="edgeLabel;html=1;align=center;verticalAlign=middle;resizable=0;points=[];fontStyle=0" parent="kF3sTlDbWWNvE3L73D8_-40" vertex="1" connectable="0">
          <mxGeometry x="-0.4324" y="2" relative="1" as="geometry">
            <mxPoint x="-13" y="-14" as="offset" />
          </mxGeometry>
        </mxCell>
        <mxCell id="kF3sTlDbWWNvE3L73D8_-52" value="" style="endArrow=none;html=1;rounded=0;jumpStyle=arc;entryX=0.005;entryY=0.735;entryDx=0;entryDy=0;entryPerimeter=0;dashed=1;dashPattern=8 8;fontStyle=0" parent="1" target="MVc7WZ1SkRlFC5I5kt_B-109" edge="1">
          <mxGeometry width="50" height="50" relative="1" as="geometry">
            <mxPoint x="550" y="740" as="sourcePoint" />
            <mxPoint x="850" y="300" as="targetPoint" />
            <Array as="points">
              <mxPoint x="550" y="777" />
              <mxPoint x="850" y="777" />
              <mxPoint x="850" y="320" />
            </Array>
          </mxGeometry>
        </mxCell>
        <mxCell id="kF3sTlDbWWNvE3L73D8_-61" style="edgeStyle=none;shape=connector;rounded=0;orthogonalLoop=1;jettySize=auto;html=1;exitX=1.002;exitY=0.734;exitDx=0;exitDy=0;strokeColor=default;align=center;verticalAlign=middle;fontFamily=Helvetica;fontSize=11;fontColor=default;labelBackgroundColor=default;endArrow=none;exitPerimeter=0;fontStyle=0" parent="1" edge="1">
          <mxGeometry relative="1" as="geometry">
            <mxPoint x="188" y="16.840000000000003" as="targetPoint" />
            <mxPoint x="158" y="16.840000000000003" as="sourcePoint" />
          </mxGeometry>
        </mxCell>
        <mxCell id="kF3sTlDbWWNvE3L73D8_-62" value="Is A" style="edgeLabel;html=1;align=center;verticalAlign=middle;resizable=0;points=[];fontFamily=Helvetica;fontSize=11;fontColor=default;labelBackgroundColor=default;fontStyle=0" parent="kF3sTlDbWWNvE3L73D8_-61" vertex="1" connectable="0">
          <mxGeometry x="-0.0736" y="-2" relative="1" as="geometry">
            <mxPoint y="-11" as="offset" />
          </mxGeometry>
        </mxCell>
        <mxCell id="kF3sTlDbWWNvE3L73D8_-63" value="" style="endArrow=none;html=1;rounded=0;fontStyle=0" parent="1" edge="1">
          <mxGeometry width="50" height="50" relative="1" as="geometry">
            <mxPoint x="188" y="117" as="sourcePoint" />
            <mxPoint x="188" y="17" as="targetPoint" />
          </mxGeometry>
        </mxCell>
        <mxCell id="kF3sTlDbWWNvE3L73D8_-66" value="" style="endArrow=none;html=1;rounded=0;entryX=0.25;entryY=0;entryDx=0;entryDy=0;exitX=0.75;exitY=1;exitDx=0;exitDy=0;fontStyle=0" parent="1" source="MVc7WZ1SkRlFC5I5kt_B-26" target="MVc7WZ1SkRlFC5I5kt_B-44" edge="1">
          <mxGeometry width="50" height="50" relative="1" as="geometry">
            <mxPoint x="-200" y="400" as="sourcePoint" />
            <mxPoint x="-150" y="350" as="targetPoint" />
            <Array as="points">
              <mxPoint x="-180" y="420" />
              <mxPoint x="110" y="420" />
            </Array>
          </mxGeometry>
        </mxCell>
        <mxCell id="kF3sTlDbWWNvE3L73D8_-67" value="Creates/&lt;div&gt;Updates&lt;/div&gt;" style="edgeLabel;html=1;align=center;verticalAlign=middle;resizable=0;points=[];fontStyle=0" parent="kF3sTlDbWWNvE3L73D8_-66" vertex="1" connectable="0">
          <mxGeometry x="-0.8371" relative="1" as="geometry">
            <mxPoint as="offset" />
          </mxGeometry>
        </mxCell>
        <mxCell id="kF3sTlDbWWNvE3L73D8_-68" value="" style="endArrow=none;html=1;rounded=0;strokeColor=default;align=center;verticalAlign=middle;fontFamily=Helvetica;fontSize=11;fontColor=default;labelBackgroundColor=default;exitX=1;exitY=0.5;exitDx=0;exitDy=0;entryX=-0.005;entryY=0.222;entryDx=0;entryDy=0;startArrow=diamondThin;startFill=0;startSize=10;jumpStyle=arc;entryPerimeter=0;fontStyle=0" parent="1" source="MVc7WZ1SkRlFC5I5kt_B-48" target="MVc7WZ1SkRlFC5I5kt_B-44" edge="1">
          <mxGeometry width="50" height="50" relative="1" as="geometry">
            <mxPoint x="-190" y="520" as="sourcePoint" />
            <mxPoint x="60" y="520" as="targetPoint" />
          </mxGeometry>
        </mxCell>
        <mxCell id="VessXJ-voPH_thNqwrve-1" value="Has A" style="edgeLabel;html=1;align=center;verticalAlign=middle;resizable=0;points=[];fontStyle=0" parent="kF3sTlDbWWNvE3L73D8_-68" vertex="1" connectable="0">
          <mxGeometry x="0.1329" relative="1" as="geometry">
            <mxPoint y="-5" as="offset" />
          </mxGeometry>
        </mxCell>
        <mxCell id="kF3sTlDbWWNvE3L73D8_-69" value="" style="endArrow=diamondThin;html=1;rounded=0;exitX=1;exitY=0.132;exitDx=0;exitDy=0;exitPerimeter=0;entryX=-0.006;entryY=0.38;entryDx=0;entryDy=0;entryPerimeter=0;endFill=1;endSize=10;fontStyle=0" parent="1" source="MVc7WZ1SkRlFC5I5kt_B-71" target="MVc7WZ1SkRlFC5I5kt_B-45" edge="1">
          <mxGeometry width="50" height="50" relative="1" as="geometry">
            <mxPoint x="-190" y="670" as="sourcePoint" />
            <mxPoint x="-140" y="620" as="targetPoint" />
            <Array as="points">
              <mxPoint x="-180" y="542" />
              <mxPoint x="-180" y="474" />
            </Array>
          </mxGeometry>
        </mxCell>
        <mxCell id="VessXJ-voPH_thNqwrve-2" value="Is Secured By" style="edgeLabel;html=1;align=center;verticalAlign=middle;resizable=0;points=[];fontStyle=0" parent="kF3sTlDbWWNvE3L73D8_-69" vertex="1" connectable="0">
          <mxGeometry x="0.3245" y="-1" relative="1" as="geometry">
            <mxPoint y="-7" as="offset" />
          </mxGeometry>
        </mxCell>
        <mxCell id="kF3sTlDbWWNvE3L73D8_-70" value="" style="endArrow=diamondThin;html=1;rounded=0;exitX=1.002;exitY=0.096;exitDx=0;exitDy=0;exitPerimeter=0;endFill=1;startSize=6;endSize=10;entryX=-0.002;entryY=0.817;entryDx=0;entryDy=0;entryPerimeter=0;fontStyle=0" parent="1" source="MVc7WZ1SkRlFC5I5kt_B-65" target="MVc7WZ1SkRlFC5I5kt_B-45" edge="1">
          <mxGeometry width="50" height="50" relative="1" as="geometry">
            <mxPoint x="-170" y="820" as="sourcePoint" />
            <mxPoint x="69" y="470" as="targetPoint" />
            <Array as="points">
              <mxPoint x="-160" y="749" />
              <mxPoint x="-160" y="494" />
            </Array>
          </mxGeometry>
        </mxCell>
        <mxCell id="VessXJ-voPH_thNqwrve-3" value="Is Described By" style="edgeLabel;html=1;align=center;verticalAlign=middle;resizable=0;points=[];fontStyle=0" parent="kF3sTlDbWWNvE3L73D8_-70" vertex="1" connectable="0">
          <mxGeometry x="0.5152" y="-2" relative="1" as="geometry">
            <mxPoint x="1" y="-7" as="offset" />
          </mxGeometry>
        </mxCell>
        <mxCell id="kF3sTlDbWWNvE3L73D8_-72" value="" style="endArrow=diamondThin;html=1;rounded=0;exitX=0.624;exitY=-0.001;exitDx=0;exitDy=0;exitPerimeter=0;endFill=1;endSize=10;fontStyle=0" parent="1" source="MVc7WZ1SkRlFC5I5kt_B-59" edge="1">
          <mxGeometry width="50" height="50" relative="1" as="geometry">
            <mxPoint x="-40" y="510" as="sourcePoint" />
            <mxPoint x="70" y="510" as="targetPoint" />
            <Array as="points">
              <mxPoint x="-53" y="510" />
            </Array>
          </mxGeometry>
        </mxCell>
        <mxCell id="VessXJ-voPH_thNqwrve-4" value="Has" style="edgeLabel;html=1;align=center;verticalAlign=middle;resizable=0;points=[];fontStyle=0" parent="kF3sTlDbWWNvE3L73D8_-72" vertex="1" connectable="0">
          <mxGeometry x="0.1606" y="4" relative="1" as="geometry">
            <mxPoint as="offset" />
          </mxGeometry>
        </mxCell>
        <mxCell id="kF3sTlDbWWNvE3L73D8_-73" value="" style="endArrow=diamondThin;html=1;rounded=0;endSize=10;endFill=1;fontStyle=0;exitX=0.998;exitY=0.163;exitDx=0;exitDy=0;exitPerimeter=0;" parent="1" source="MVc7WZ1SkRlFC5I5kt_B-135" edge="1">
          <mxGeometry width="50" height="50" relative="1" as="geometry">
            <mxPoint x="21" y="802" as="sourcePoint" />
            <mxPoint x="80" y="530" as="targetPoint" />
            <Array as="points">
              <mxPoint x="40" y="802" />
              <mxPoint x="40" y="550" />
              <mxPoint x="80" y="550" />
            </Array>
          </mxGeometry>
        </mxCell>
        <mxCell id="VessXJ-voPH_thNqwrve-5" value="Contains&lt;div&gt;A&lt;/div&gt;" style="edgeLabel;html=1;align=center;verticalAlign=middle;resizable=0;points=[];fontStyle=0" parent="kF3sTlDbWWNvE3L73D8_-73" vertex="1" connectable="0">
          <mxGeometry x="-0.0683" relative="1" as="geometry">
            <mxPoint x="-10" y="40" as="offset" />
          </mxGeometry>
        </mxCell>
        <mxCell id="kF3sTlDbWWNvE3L73D8_-74" value="" style="endArrow=diamondThin;html=1;rounded=0;exitX=0.5;exitY=0;exitDx=0;exitDy=0;endFill=1;endSize=10;fontStyle=0" parent="1" source="MVc7WZ1SkRlFC5I5kt_B-68" edge="1">
          <mxGeometry width="50" height="50" relative="1" as="geometry">
            <mxPoint x="90" y="580" as="sourcePoint" />
            <mxPoint x="150" y="530" as="targetPoint" />
          </mxGeometry>
        </mxCell>
        <mxCell id="VessXJ-voPH_thNqwrve-6" value="Has" style="edgeLabel;html=1;align=center;verticalAlign=middle;resizable=0;points=[];fontStyle=0" parent="kF3sTlDbWWNvE3L73D8_-74" vertex="1" connectable="0">
          <mxGeometry x="-0.2195" y="-4" relative="1" as="geometry">
            <mxPoint as="offset" />
          </mxGeometry>
        </mxCell>
        <mxCell id="kF3sTlDbWWNvE3L73D8_-76" value="" style="endArrow=none;html=1;rounded=0;entryX=0.001;entryY=0.097;entryDx=0;entryDy=0;entryPerimeter=0;exitX=0.75;exitY=0;exitDx=0;exitDy=0;fontStyle=0" parent="1" source="MVc7WZ1SkRlFC5I5kt_B-38" target="MVc7WZ1SkRlFC5I5kt_B-72" edge="1">
          <mxGeometry width="50" height="50" relative="1" as="geometry">
            <mxPoint x="-380" y="-60" as="sourcePoint" />
            <mxPoint x="-400" y="532" as="targetPoint" />
            <Array as="points">
              <mxPoint x="690" y="-60" />
              <mxPoint x="-370" y="-60" />
              <mxPoint x="-370" y="556" />
            </Array>
          </mxGeometry>
        </mxCell>
        <mxCell id="kF3sTlDbWWNvE3L73D8_-111" value="Is&lt;div&gt;Located&lt;/div&gt;&lt;div&gt;At&lt;/div&gt;" style="edgeLabel;html=1;align=center;verticalAlign=middle;resizable=0;points=[];fontStyle=0" parent="kF3sTlDbWWNvE3L73D8_-76" vertex="1" connectable="0">
          <mxGeometry x="0.5989" y="3" relative="1" as="geometry">
            <mxPoint as="offset" />
          </mxGeometry>
        </mxCell>
        <mxCell id="kF3sTlDbWWNvE3L73D8_-77" value="" style="endArrow=none;html=1;rounded=0;exitX=0.997;exitY=0.163;exitDx=0;exitDy=0;exitPerimeter=0;fontStyle=0;entryX=0.003;entryY=0.17;entryDx=0;entryDy=0;entryPerimeter=0;" parent="1" source="MVc7WZ1SkRlFC5I5kt_B-32" target="MVc7WZ1SkRlFC5I5kt_B-108" edge="1">
          <mxGeometry width="50" height="50" relative="1" as="geometry">
            <mxPoint x="440" y="350" as="sourcePoint" />
            <mxPoint x="880" y="260" as="targetPoint" />
          </mxGeometry>
        </mxCell>
        <mxCell id="kF3sTlDbWWNvE3L73D8_-78" value="Accesses" style="edgeLabel;html=1;align=center;verticalAlign=middle;resizable=0;points=[];fontStyle=0" parent="kF3sTlDbWWNvE3L73D8_-77" vertex="1" connectable="0">
          <mxGeometry x="0.1681" y="-1" relative="1" as="geometry">
            <mxPoint x="-46" y="-10" as="offset" />
          </mxGeometry>
        </mxCell>
        <mxCell id="kF3sTlDbWWNvE3L73D8_-79" value="" style="endArrow=none;html=1;rounded=0;exitX=0.75;exitY=0;exitDx=0;exitDy=0;entryX=1.001;entryY=0.256;entryDx=0;entryDy=0;entryPerimeter=0;jumpStyle=arc;fontStyle=0" parent="1" source="MVc7WZ1SkRlFC5I5kt_B-32" target="MVc7WZ1SkRlFC5I5kt_B-105" edge="1">
          <mxGeometry width="50" height="50" relative="1" as="geometry">
            <mxPoint x="650" y="260" as="sourcePoint" />
            <mxPoint x="1240" y="590" as="targetPoint" />
            <Array as="points">
              <mxPoint x="580" y="220" />
              <mxPoint x="1080" y="220" />
              <mxPoint x="1080" y="653" />
            </Array>
          </mxGeometry>
        </mxCell>
        <mxCell id="kF3sTlDbWWNvE3L73D8_-80" value="Writes" style="edgeLabel;html=1;align=center;verticalAlign=middle;resizable=0;points=[];fontStyle=0" parent="kF3sTlDbWWNvE3L73D8_-79" vertex="1" connectable="0">
          <mxGeometry x="-0.5761" y="-2" relative="1" as="geometry">
            <mxPoint x="-2" y="-6" as="offset" />
          </mxGeometry>
        </mxCell>
        <mxCell id="kF3sTlDbWWNvE3L73D8_-84" value="" style="endArrow=none;html=1;rounded=0;entryX=0.5;entryY=0;entryDx=0;entryDy=0;jumpStyle=arc;dashed=1;dashPattern=8 8;fontStyle=0;" parent="1" target="MVc7WZ1SkRlFC5I5kt_B-123" edge="1">
          <mxGeometry width="50" height="50" relative="1" as="geometry">
            <mxPoint x="570" y="459" as="sourcePoint" />
            <mxPoint x="620" y="540" as="targetPoint" />
            <Array as="points">
              <mxPoint x="570" y="480" />
              <mxPoint x="960" y="480" />
            </Array>
          </mxGeometry>
        </mxCell>
        <mxCell id="kF3sTlDbWWNvE3L73D8_-85" value="&lt;span&gt;Sends Period Close Data Via&lt;/span&gt;" style="edgeLabel;html=1;align=center;verticalAlign=middle;resizable=0;points=[];fontStyle=0" parent="kF3sTlDbWWNvE3L73D8_-84" vertex="1" connectable="0">
          <mxGeometry x="-0.5" relative="1" as="geometry">
            <mxPoint x="17" as="offset" />
          </mxGeometry>
        </mxCell>
        <mxCell id="kF3sTlDbWWNvE3L73D8_-89" value="" style="endArrow=none;html=1;rounded=0;entryX=-0.016;entryY=0.365;entryDx=0;entryDy=0;entryPerimeter=0;exitX=1.009;exitY=0.68;exitDx=0;exitDy=0;exitPerimeter=0;fontStyle=0" parent="1" source="kF3sTlDbWWNvE3L73D8_-36" target="MVc7WZ1SkRlFC5I5kt_B-127" edge="1">
          <mxGeometry width="50" height="50" relative="1" as="geometry">
            <mxPoint x="600" y="920" as="sourcePoint" />
            <mxPoint x="650" y="870" as="targetPoint" />
          </mxGeometry>
        </mxCell>
        <mxCell id="kF3sTlDbWWNvE3L73D8_-90" value="&lt;span&gt;Sends Invoice Via&lt;/span&gt;" style="edgeLabel;html=1;align=center;verticalAlign=middle;resizable=0;points=[];fontStyle=0" parent="kF3sTlDbWWNvE3L73D8_-89" vertex="1" connectable="0">
          <mxGeometry x="-0.015" y="-1" relative="1" as="geometry">
            <mxPoint x="-29" y="-10" as="offset" />
          </mxGeometry>
        </mxCell>
        <mxCell id="kF3sTlDbWWNvE3L73D8_-91" value="Bank Software Gateway" style="swimlane;fontStyle=1;align=center;verticalAlign=top;childLayout=stackLayout;horizontal=1;startSize=26;horizontalStack=0;resizeParent=1;resizeParentMax=0;resizeLast=0;collapsible=1;marginBottom=0;whiteSpace=wrap;html=1;" parent="1" vertex="1">
          <mxGeometry x="350" y="950" width="160" height="100" as="geometry" />
        </mxCell>
        <mxCell id="kF3sTlDbWWNvE3L73D8_-92" value="&lt;div&gt;bankSoftwareAddress&lt;/div&gt;&lt;div&gt;cnnctTimeOut&lt;/div&gt;&lt;div&gt;formattedTransmission&lt;/div&gt;" style="text;strokeColor=none;fillColor=none;align=left;verticalAlign=top;spacingLeft=4;spacingRight=4;overflow=hidden;rotatable=0;points=[[0,0.5],[1,0.5]];portConstraint=eastwest;whiteSpace=wrap;html=1;fontStyle=0" parent="kF3sTlDbWWNvE3L73D8_-91" vertex="1">
          <mxGeometry y="26" width="160" height="44" as="geometry" />
        </mxCell>
        <mxCell id="kF3sTlDbWWNvE3L73D8_-93" value="" style="line;strokeWidth=1;fillColor=none;align=left;verticalAlign=middle;spacingTop=-1;spacingLeft=3;spacingRight=3;rotatable=0;labelPosition=right;points=[];portConstraint=eastwest;strokeColor=inherit;fontStyle=0" parent="kF3sTlDbWWNvE3L73D8_-91" vertex="1">
          <mxGeometry y="70" width="160" height="30" as="geometry" />
        </mxCell>
        <mxCell id="kF3sTlDbWWNvE3L73D8_-94" value="" style="endArrow=diamondThin;html=1;rounded=0;exitX=0.5;exitY=0;exitDx=0;exitDy=0;jumpStyle=arc;endFill=0;endSize=10;fontStyle=0" parent="1" source="MVc7WZ1SkRlFC5I5kt_B-44" edge="1">
          <mxGeometry width="50" height="50" relative="1" as="geometry">
            <mxPoint x="-180" y="180" as="sourcePoint" />
            <mxPoint x="-130" y="90" as="targetPoint" />
            <Array as="points">
              <mxPoint x="150" y="400" />
              <mxPoint x="-130" y="400" />
            </Array>
          </mxGeometry>
        </mxCell>
        <mxCell id="kF3sTlDbWWNvE3L73D8_-95" value="Borrows&lt;div&gt;A&lt;/div&gt;" style="edgeLabel;html=1;align=center;verticalAlign=middle;resizable=0;points=[];fontStyle=0" parent="kF3sTlDbWWNvE3L73D8_-94" vertex="1" connectable="0">
          <mxGeometry x="0.8021" y="-4" relative="1" as="geometry">
            <mxPoint as="offset" />
          </mxGeometry>
        </mxCell>
        <mxCell id="kF3sTlDbWWNvE3L73D8_-96" value="" style="endArrow=none;html=1;rounded=0;exitX=0.5;exitY=1;exitDx=0;exitDy=0;entryX=0;entryY=0.5;entryDx=0;entryDy=0;jumpStyle=arc;fontStyle=0" parent="1" source="MVc7WZ1SkRlFC5I5kt_B-35" target="MVc7WZ1SkRlFC5I5kt_B-130" edge="1">
          <mxGeometry width="50" height="50" relative="1" as="geometry">
            <mxPoint x="340" y="530" as="sourcePoint" />
            <mxPoint x="390" y="480" as="targetPoint" />
            <Array as="points">
              <mxPoint x="-30" y="390" />
              <mxPoint x="330" y="390" />
              <mxPoint x="330" y="836" />
            </Array>
          </mxGeometry>
        </mxCell>
        <mxCell id="kF3sTlDbWWNvE3L73D8_-100" value="Uses" style="edgeLabel;html=1;align=center;verticalAlign=middle;resizable=0;points=[];fontStyle=0" parent="kF3sTlDbWWNvE3L73D8_-96" vertex="1" connectable="0">
          <mxGeometry x="-0.365" relative="1" as="geometry">
            <mxPoint x="-5" y="-4" as="offset" />
          </mxGeometry>
        </mxCell>
        <mxCell id="kF3sTlDbWWNvE3L73D8_-101" value="" style="endArrow=none;html=1;rounded=0;entryX=0.5;entryY=1;entryDx=0;entryDy=0;exitX=0.5;exitY=0;exitDx=0;exitDy=0;dashed=1;dashPattern=8 8;fontStyle=0" parent="1" source="kF3sTlDbWWNvE3L73D8_-91" target="MVc7WZ1SkRlFC5I5kt_B-129" edge="1">
          <mxGeometry width="50" height="50" relative="1" as="geometry">
            <mxPoint x="420" y="940" as="sourcePoint" />
            <mxPoint x="470" y="890" as="targetPoint" />
          </mxGeometry>
        </mxCell>
        <mxCell id="kF3sTlDbWWNvE3L73D8_-102" value="&lt;span style=&quot;font-weight: normal;&quot;&gt;&lt;span&gt;Transmits&lt;/span&gt;&lt;/span&gt;&lt;div&gt;&lt;span style=&quot;font-weight: normal;&quot;&gt;&lt;span&gt;Forecast to&lt;/span&gt;&lt;/span&gt;&lt;/div&gt;&lt;div&gt;&lt;span style=&quot;font-weight: normal;&quot;&gt;&lt;span&gt;Bank Via&lt;/span&gt;&lt;/span&gt;&lt;/div&gt;" style="edgeLabel;html=1;align=center;verticalAlign=middle;resizable=0;points=[];fontStyle=1" parent="kF3sTlDbWWNvE3L73D8_-101" vertex="1" connectable="0">
          <mxGeometry x="0.0656" y="1" relative="1" as="geometry">
            <mxPoint x="-32" y="-1" as="offset" />
          </mxGeometry>
        </mxCell>
        <mxCell id="kF3sTlDbWWNvE3L73D8_-103" value="" style="endArrow=none;html=1;rounded=0;exitX=0.75;exitY=1;exitDx=0;exitDy=0;entryX=0.5;entryY=0;entryDx=0;entryDy=0;jumpStyle=arc;fontStyle=0" parent="1" source="MVc7WZ1SkRlFC5I5kt_B-29" target="kF3sTlDbWWNvE3L73D8_-35" edge="1">
          <mxGeometry width="50" height="50" relative="1" as="geometry">
            <mxPoint x="350" y="470" as="sourcePoint" />
            <mxPoint x="400" y="420" as="targetPoint" />
            <Array as="points">
              <mxPoint x="199" y="370" />
              <mxPoint x="350" y="370" />
              <mxPoint x="350" y="610" />
              <mxPoint x="640" y="610" />
            </Array>
          </mxGeometry>
        </mxCell>
        <mxCell id="kF3sTlDbWWNvE3L73D8_-104" value="Uses" style="edgeLabel;html=1;align=center;verticalAlign=middle;resizable=0;points=[];fontStyle=0" parent="kF3sTlDbWWNvE3L73D8_-103" vertex="1" connectable="0">
          <mxGeometry x="-0.3241" relative="1" as="geometry">
            <mxPoint as="offset" />
          </mxGeometry>
        </mxCell>
        <mxCell id="kF3sTlDbWWNvE3L73D8_-105" value="" style="endArrow=none;html=1;rounded=0;entryX=0.25;entryY=1;entryDx=0;entryDy=0;exitX=0.75;exitY=1;exitDx=0;exitDy=0;dashed=1;dashPattern=8 8;fontStyle=0" parent="1" source="MVc7WZ1SkRlFC5I5kt_B-77" target="kF3sTlDbWWNvE3L73D8_-35" edge="1">
          <mxGeometry width="50" height="50" relative="1" as="geometry">
            <mxPoint x="590" y="1060" as="sourcePoint" />
            <mxPoint x="640" y="1010" as="targetPoint" />
            <Array as="points">
              <mxPoint x="190" y="1060" />
              <mxPoint x="600" y="1060" />
            </Array>
          </mxGeometry>
        </mxCell>
        <mxCell id="kF3sTlDbWWNvE3L73D8_-106" value="&lt;span&gt;Creates&lt;/span&gt;" style="edgeLabel;html=1;align=center;verticalAlign=middle;resizable=0;points=[];fontStyle=0" parent="kF3sTlDbWWNvE3L73D8_-105" vertex="1" connectable="0">
          <mxGeometry x="0.0895" y="-1" relative="1" as="geometry">
            <mxPoint y="7" as="offset" />
          </mxGeometry>
        </mxCell>
        <mxCell id="kF3sTlDbWWNvE3L73D8_-107" value="" style="endArrow=none;html=1;rounded=0;exitX=0;exitY=0.5;exitDx=0;exitDy=0;entryX=0.75;entryY=1;entryDx=0;entryDy=0;fontStyle=0" parent="1" source="kF3sTlDbWWNvE3L73D8_-2" target="MVc7WZ1SkRlFC5I5kt_B-23" edge="1">
          <mxGeometry width="50" height="50" relative="1" as="geometry">
            <mxPoint x="390" y="540" as="sourcePoint" />
            <mxPoint x="380" y="360" as="targetPoint" />
            <Array as="points">
              <mxPoint x="389" y="416" />
            </Array>
          </mxGeometry>
        </mxCell>
        <mxCell id="kF3sTlDbWWNvE3L73D8_-108" value="Uses" style="edgeLabel;html=1;align=center;verticalAlign=middle;resizable=0;points=[];fontStyle=0" parent="kF3sTlDbWWNvE3L73D8_-107" vertex="1" connectable="0">
          <mxGeometry x="0.2928" relative="1" as="geometry">
            <mxPoint as="offset" />
          </mxGeometry>
        </mxCell>
        <mxCell id="kF3sTlDbWWNvE3L73D8_-109" value="" style="endArrow=none;html=1;rounded=0;startArrow=diamondThin;startFill=1;startSize=10;entryX=0;entryY=0.941;entryDx=0;entryDy=0;jumpStyle=arc;entryPerimeter=0;fontStyle=0" parent="1" target="MVc7WZ1SkRlFC5I5kt_B-106" edge="1">
          <mxGeometry width="50" height="50" relative="1" as="geometry">
            <mxPoint x="100" y="530" as="sourcePoint" />
            <mxPoint x="1148" y="660" as="targetPoint" />
            <Array as="points">
              <mxPoint x="100" y="560" />
              <mxPoint x="60" y="560" />
              <mxPoint x="60" y="1100" />
              <mxPoint x="860" y="1100" />
              <mxPoint x="860" y="688" />
            </Array>
          </mxGeometry>
        </mxCell>
        <mxCell id="kF3sTlDbWWNvE3L73D8_-110" value="&lt;span&gt;Contains&lt;/span&gt;" style="edgeLabel;html=1;align=center;verticalAlign=middle;resizable=0;points=[];fontStyle=0" parent="kF3sTlDbWWNvE3L73D8_-109" vertex="1" connectable="0">
          <mxGeometry x="0.3205" y="-2" relative="1" as="geometry">
            <mxPoint x="4" y="-8" as="offset" />
          </mxGeometry>
        </mxCell>
        <mxCell id="VessXJ-voPH_thNqwrve-7" value="" style="endArrow=none;html=1;rounded=0;exitX=0.624;exitY=-0.001;exitDx=0;exitDy=0;exitPerimeter=0;entryX=0.25;entryY=1;entryDx=0;entryDy=0;dashed=1;dashPattern=8 8;fontStyle=0" parent="1" source="MVc7WZ1SkRlFC5I5kt_B-129" target="kF3sTlDbWWNvE3L73D8_-4" edge="1">
          <mxGeometry width="50" height="50" relative="1" as="geometry">
            <mxPoint x="440" y="790" as="sourcePoint" />
            <mxPoint x="440" y="760" as="targetPoint" />
          </mxGeometry>
        </mxCell>
        <mxCell id="VessXJ-voPH_thNqwrve-8" value="&lt;span&gt;Accesss Data&lt;/span&gt;&lt;div&gt;&lt;span&gt;Via&lt;/span&gt;&lt;/div&gt;" style="edgeLabel;html=1;align=center;verticalAlign=middle;resizable=0;points=[];fontStyle=0" parent="VessXJ-voPH_thNqwrve-7" vertex="1" connectable="0">
          <mxGeometry x="0.1423" relative="1" as="geometry">
            <mxPoint x="-40" y="5" as="offset" />
          </mxGeometry>
        </mxCell>
        <mxCell id="VessXJ-voPH_thNqwrve-9" value="" style="endArrow=none;html=1;rounded=0;jumpStyle=arc;entryX=0.998;entryY=0.435;entryDx=0;entryDy=0;entryPerimeter=0;dashed=1;dashPattern=8 8;fontStyle=0" parent="1" target="MVc7WZ1SkRlFC5I5kt_B-122" edge="1">
          <mxGeometry width="50" height="50" relative="1" as="geometry">
            <mxPoint x="510" y="860" as="sourcePoint" />
            <mxPoint x="820" y="450" as="targetPoint" />
            <Array as="points">
              <mxPoint x="530" y="860" />
              <mxPoint x="530" y="1000" />
              <mxPoint x="830" y="1000" />
              <mxPoint x="830" y="450" />
            </Array>
          </mxGeometry>
        </mxCell>
        <mxCell id="VessXJ-voPH_thNqwrve-10" value="&lt;span&gt;Formats Report Via&lt;/span&gt;" style="edgeLabel;html=1;align=center;verticalAlign=middle;resizable=0;points=[];fontStyle=0" parent="VessXJ-voPH_thNqwrve-9" vertex="1" connectable="0">
          <mxGeometry x="-0.39" y="-1" relative="1" as="geometry">
            <mxPoint x="1" y="-6" as="offset" />
          </mxGeometry>
        </mxCell>
        <mxCell id="VessXJ-voPH_thNqwrve-13" value="" style="endArrow=none;html=1;rounded=0;entryX=1;entryY=0.1;entryDx=0;entryDy=0;entryPerimeter=0;exitX=0.5;exitY=0.8;exitDx=0;exitDy=0;dashed=1;dashPattern=12 12;fontStyle=0;exitPerimeter=0;" parent="1" source="SfofTPBKXxh9Nz9_e_g--17" target="MVc7WZ1SkRlFC5I5kt_B-105" edge="1">
          <mxGeometry width="50" height="50" relative="1" as="geometry">
            <mxPoint x="1219" y="308" as="sourcePoint" />
            <mxPoint x="1230" y="580" as="targetPoint" />
            <Array as="points">
              <mxPoint x="1060" y="330" />
              <mxPoint x="1060" y="639" />
            </Array>
          </mxGeometry>
        </mxCell>
        <mxCell id="VessXJ-voPH_thNqwrve-14" value="&lt;span&gt;Creates&lt;/span&gt;" style="edgeLabel;html=1;align=center;verticalAlign=middle;resizable=0;points=[];fontStyle=0" parent="VessXJ-voPH_thNqwrve-13" vertex="1" connectable="0">
          <mxGeometry x="-0.6078" relative="1" as="geometry">
            <mxPoint x="-10" y="24" as="offset" />
          </mxGeometry>
        </mxCell>
        <mxCell id="VessXJ-voPH_thNqwrve-17" value="" style="endArrow=none;html=1;rounded=0;exitX=1.002;exitY=0.216;exitDx=0;exitDy=0;exitPerimeter=0;jumpStyle=arc;fontStyle=0" parent="1" source="MVc7WZ1SkRlFC5I5kt_B-45" edge="1">
          <mxGeometry width="50" height="50" relative="1" as="geometry">
            <mxPoint x="300" y="460" as="sourcePoint" />
            <mxPoint x="630" y="950" as="targetPoint" />
            <Array as="points">
              <mxPoint x="300" y="467" />
              <mxPoint x="300" y="1090" />
              <mxPoint x="630" y="1090" />
            </Array>
          </mxGeometry>
        </mxCell>
        <mxCell id="VessXJ-voPH_thNqwrve-18" value="&lt;span&gt;Generates Bills Using&lt;/span&gt;" style="edgeLabel;html=1;align=center;verticalAlign=middle;resizable=0;points=[];fontStyle=0" parent="VessXJ-voPH_thNqwrve-17" vertex="1" connectable="0">
          <mxGeometry x="0.6509" y="1" relative="1" as="geometry">
            <mxPoint x="89" y="-25" as="offset" />
          </mxGeometry>
        </mxCell>
        <mxCell id="VessXJ-voPH_thNqwrve-19" value="" style="endArrow=none;html=1;rounded=0;exitX=0.75;exitY=0;exitDx=0;exitDy=0;entryX=0.005;entryY=0.381;entryDx=0;entryDy=0;entryPerimeter=0;dashed=1;dashPattern=8 8;fontStyle=0" parent="1" source="MVc7WZ1SkRlFC5I5kt_B-120" target="MVc7WZ1SkRlFC5I5kt_B-109" edge="1">
          <mxGeometry width="50" height="50" relative="1" as="geometry">
            <mxPoint x="890" y="400" as="sourcePoint" />
            <mxPoint x="1010" y="290" as="targetPoint" />
            <Array as="points">
              <mxPoint x="776" y="293" />
            </Array>
          </mxGeometry>
        </mxCell>
        <mxCell id="VessXJ-voPH_thNqwrve-20" value="&lt;span&gt;Generates View Using&lt;/span&gt;" style="edgeLabel;html=1;align=center;verticalAlign=middle;resizable=0;points=[];fontStyle=0" parent="VessXJ-voPH_thNqwrve-19" vertex="1" connectable="0">
          <mxGeometry x="0.1865" relative="1" as="geometry">
            <mxPoint x="-26" y="33" as="offset" />
          </mxGeometry>
        </mxCell>
        <mxCell id="VessXJ-voPH_thNqwrve-22" value="" style="triangle;aspect=fixed;fillColor=strokeColor;strokeColor=default;fontStyle=0" parent="1" vertex="1">
          <mxGeometry x="480" y="-43" width="4" height="8" as="geometry" />
        </mxCell>
        <mxCell id="VessXJ-voPH_thNqwrve-23" value="" style="triangle;aspect=fixed;fillColor=strokeColor;strokeColor=default;fontStyle=0;rotation=90;" parent="1" vertex="1">
          <mxGeometry x="-120" y="170" width="4" height="8" as="geometry" />
        </mxCell>
        <mxCell id="VessXJ-voPH_thNqwrve-24" value="" style="triangle;aspect=fixed;fillColor=strokeColor;strokeColor=default;fontStyle=0;rotation=-90;" parent="1" vertex="1">
          <mxGeometry x="-360" y="200" width="4" height="8" as="geometry" />
        </mxCell>
        <mxCell id="VessXJ-voPH_thNqwrve-25" value="" style="triangle;aspect=fixed;fillColor=strokeColor;strokeColor=default;fontStyle=0;rotation=-180;" parent="1" vertex="1">
          <mxGeometry x="-70" y="440" width="4" height="8" as="geometry" />
        </mxCell>
        <mxCell id="VessXJ-voPH_thNqwrve-26" value="" style="triangle;aspect=fixed;fillColor=strokeColor;strokeColor=default;fontStyle=0;rotation=-180;" parent="1" vertex="1">
          <mxGeometry x="-82" y="462" width="4" height="8" as="geometry" />
        </mxCell>
        <mxCell id="VessXJ-voPH_thNqwrve-27" value="" style="triangle;aspect=fixed;fillColor=strokeColor;strokeColor=default;fontStyle=0;rotation=-180;" parent="1" vertex="1">
          <mxGeometry x="-100" y="483" width="4" height="8" as="geometry" />
        </mxCell>
        <mxCell id="VessXJ-voPH_thNqwrve-28" value="" style="triangle;aspect=fixed;fillColor=strokeColor;strokeColor=default;fontStyle=0;rotation=-180;" parent="1" vertex="1">
          <mxGeometry x="-2" y="500" width="4" height="8" as="geometry" />
        </mxCell>
        <mxCell id="VessXJ-voPH_thNqwrve-29" value="" style="triangle;aspect=fixed;fillColor=strokeColor;strokeColor=default;fontStyle=0;rotation=90;" parent="1" vertex="1">
          <mxGeometry x="-175" y="382" width="4" height="8" as="geometry" />
        </mxCell>
        <mxCell id="VessXJ-voPH_thNqwrve-30" value="" style="triangle;aspect=fixed;fillColor=strokeColor;strokeColor=default;fontStyle=0;rotation=90;" parent="1" vertex="1">
          <mxGeometry x="29" y="730" width="4" height="8" as="geometry" />
        </mxCell>
        <mxCell id="VessXJ-voPH_thNqwrve-31" value="" style="triangle;aspect=fixed;fillColor=strokeColor;strokeColor=default;fontStyle=0;rotation=90;" parent="1" vertex="1">
          <mxGeometry x="158" y="689" width="4" height="8" as="geometry" />
        </mxCell>
        <mxCell id="VessXJ-voPH_thNqwrve-32" value="" style="triangle;aspect=fixed;fillColor=strokeColor;strokeColor=default;fontStyle=0;rotation=90;" parent="1" vertex="1">
          <mxGeometry x="155" y="560" width="4" height="8" as="geometry" />
        </mxCell>
        <mxCell id="VessXJ-voPH_thNqwrve-33" value="" style="triangle;aspect=fixed;fillColor=strokeColor;strokeColor=default;fontStyle=0" parent="1" vertex="1">
          <mxGeometry x="208" y="379" width="4" height="8" as="geometry" />
        </mxCell>
        <mxCell id="VessXJ-voPH_thNqwrve-34" value="" style="triangle;aspect=fixed;fillColor=strokeColor;strokeColor=default;fontStyle=0;rotation=90;" parent="1" vertex="1">
          <mxGeometry x="397" y="400" width="4" height="8" as="geometry" />
        </mxCell>
        <mxCell id="VessXJ-voPH_thNqwrve-35" value="" style="triangle;aspect=fixed;fillColor=strokeColor;strokeColor=default;fontStyle=0;rotation=90;" parent="1" vertex="1">
          <mxGeometry x="355" y="509" width="4" height="8" as="geometry" />
        </mxCell>
        <mxCell id="VessXJ-voPH_thNqwrve-36" value="" style="triangle;aspect=fixed;fillColor=strokeColor;strokeColor=default;fontStyle=0;rotation=90;" parent="1" vertex="1">
          <mxGeometry x="476" y="513" width="4" height="8" as="geometry" />
        </mxCell>
        <mxCell id="VessXJ-voPH_thNqwrve-37" value="" style="triangle;aspect=fixed;fillColor=strokeColor;strokeColor=default;fontStyle=0;rotation=-90;" parent="1" vertex="1">
          <mxGeometry x="436" y="747" width="4" height="8" as="geometry" />
        </mxCell>
        <mxCell id="VessXJ-voPH_thNqwrve-38" value="" style="triangle;aspect=fixed;fillColor=strokeColor;strokeColor=default;fontStyle=0;rotation=-90;" parent="1" vertex="1">
          <mxGeometry x="520" y="767" width="4" height="8" as="geometry" />
        </mxCell>
        <mxCell id="VessXJ-voPH_thNqwrve-39" value="" style="triangle;aspect=fixed;fillColor=strokeColor;strokeColor=default;fontStyle=0;rotation=90;" parent="1" vertex="1">
          <mxGeometry x="419" y="936" width="4" height="8" as="geometry" />
        </mxCell>
        <mxCell id="VessXJ-voPH_thNqwrve-41" value="" style="triangle;aspect=fixed;fillColor=strokeColor;strokeColor=default;rotation=-90;fontStyle=0" parent="1" vertex="1">
          <mxGeometry x="620" y="1042" width="4" height="8" as="geometry" />
        </mxCell>
        <mxCell id="VessXJ-voPH_thNqwrve-44" value="" style="triangle;aspect=fixed;fillColor=strokeColor;strokeColor=default;rotation=0;fontStyle=0" parent="1" vertex="1">
          <mxGeometry x="700" y="1090" width="4" height="8" as="geometry" />
        </mxCell>
        <mxCell id="VessXJ-voPH_thNqwrve-45" value="" style="triangle;aspect=fixed;fillColor=strokeColor;strokeColor=default;rotation=0;fontStyle=0" parent="1" vertex="1">
          <mxGeometry x="819" y="883" width="4" height="8" as="geometry" />
        </mxCell>
        <mxCell id="VessXJ-voPH_thNqwrve-46" value="" style="triangle;aspect=fixed;fillColor=strokeColor;strokeColor=default;rotation=0;fontStyle=0" parent="1" vertex="1">
          <mxGeometry x="740" y="990" width="4" height="8" as="geometry" />
        </mxCell>
        <mxCell id="VessXJ-voPH_thNqwrve-47" value="" style="triangle;aspect=fixed;fillColor=strokeColor;strokeColor=default;fontStyle=0;rotation=0;" parent="1" vertex="1">
          <mxGeometry x="616" y="530" width="4" height="8" as="geometry" />
        </mxCell>
        <mxCell id="VessXJ-voPH_thNqwrve-48" value="" style="triangle;aspect=fixed;fillColor=strokeColor;strokeColor=default;fontStyle=0;rotation=90;" parent="1" vertex="1">
          <mxGeometry x="734" y="654" width="4" height="8" as="geometry" />
        </mxCell>
        <mxCell id="VessXJ-voPH_thNqwrve-49" value="" style="triangle;aspect=fixed;fillColor=strokeColor;strokeColor=default;fontStyle=0;rotation=90;" parent="1" vertex="1">
          <mxGeometry x="1110" y="810" width="4" height="8" as="geometry" />
        </mxCell>
        <mxCell id="VessXJ-voPH_thNqwrve-50" value="" style="triangle;aspect=fixed;fillColor=strokeColor;strokeColor=default;fontStyle=0;rotation=90;" parent="1" vertex="1">
          <mxGeometry x="1046" y="417" width="4" height="8" as="geometry" />
        </mxCell>
        <mxCell id="VessXJ-voPH_thNqwrve-51" value="" style="triangle;aspect=fixed;fillColor=strokeColor;strokeColor=default;fontStyle=0;rotation=90;" parent="1" vertex="1">
          <mxGeometry x="780" y="337" width="4" height="8" as="geometry" />
        </mxCell>
        <mxCell id="VessXJ-voPH_thNqwrve-53" value="" style="triangle;aspect=fixed;fillColor=strokeColor;strokeColor=default;fontStyle=0" parent="1" vertex="1">
          <mxGeometry x="760" y="250" width="4" height="8" as="geometry" />
        </mxCell>
        <mxCell id="VessXJ-voPH_thNqwrve-55" value="" style="triangle;aspect=fixed;fillColor=strokeColor;strokeColor=default;fontStyle=0" parent="1" vertex="1">
          <mxGeometry x="790" y="208" width="4" height="8" as="geometry" />
        </mxCell>
        <mxCell id="VessXJ-voPH_thNqwrve-57" value="" style="triangle;aspect=fixed;fillColor=strokeColor;strokeColor=default;fontStyle=0;rotation=0;" parent="1" vertex="1">
          <mxGeometry x="589" y="552" width="4" height="8" as="geometry" />
        </mxCell>
        <mxCell id="SfofTPBKXxh9Nz9_e_g--1" value="&lt;font style=&quot;font-size: 11px;&quot;&gt;1...*&lt;/font&gt;" style="text;html=1;align=center;verticalAlign=middle;resizable=0;points=[];autosize=1;strokeColor=none;fillColor=none;" parent="1" vertex="1">
          <mxGeometry x="100" y="410" width="40" height="30" as="geometry" />
        </mxCell>
        <mxCell id="SfofTPBKXxh9Nz9_e_g--2" value="&lt;font style=&quot;font-size: 11px;&quot;&gt;1&lt;/font&gt;" style="text;html=1;align=center;verticalAlign=middle;resizable=0;points=[];autosize=1;strokeColor=none;fillColor=none;" parent="1" vertex="1">
          <mxGeometry x="-187" y="330" width="30" height="30" as="geometry" />
        </mxCell>
        <mxCell id="SfofTPBKXxh9Nz9_e_g--3" value="&lt;font style=&quot;font-size: 11px;&quot;&gt;*&lt;/font&gt;" style="text;html=1;align=center;verticalAlign=middle;resizable=0;points=[];autosize=1;strokeColor=none;fillColor=none;" parent="1" vertex="1">
          <mxGeometry x="-39" y="330" width="30" height="30" as="geometry" />
        </mxCell>
        <mxCell id="SfofTPBKXxh9Nz9_e_g--4" value="&lt;font style=&quot;font-size: 11px;&quot;&gt;1&lt;/font&gt;" style="text;html=1;align=center;verticalAlign=middle;resizable=0;points=[];autosize=1;strokeColor=none;fillColor=none;" parent="1" vertex="1">
          <mxGeometry x="328" y="814" width="30" height="30" as="geometry" />
        </mxCell>
        <mxCell id="SfofTPBKXxh9Nz9_e_g--5" value="&lt;font style=&quot;font-size: 11px;&quot;&gt;*&lt;/font&gt;" style="text;html=1;align=center;verticalAlign=middle;resizable=0;points=[];autosize=1;strokeColor=none;fillColor=none;" parent="1" vertex="1">
          <mxGeometry x="190" y="330" width="30" height="30" as="geometry" />
        </mxCell>
        <mxCell id="SfofTPBKXxh9Nz9_e_g--6" value="&lt;font style=&quot;font-size: 11px;&quot;&gt;1&lt;/font&gt;" style="text;html=1;align=center;verticalAlign=middle;resizable=0;points=[];autosize=1;strokeColor=none;fillColor=none;" parent="1" vertex="1">
          <mxGeometry x="635" y="803" width="30" height="30" as="geometry" />
        </mxCell>
        <mxCell id="SfofTPBKXxh9Nz9_e_g--8" value="&lt;font style=&quot;font-size: 11px;&quot;&gt;*&lt;/font&gt;" style="text;html=1;align=center;verticalAlign=middle;resizable=0;points=[];autosize=1;strokeColor=none;fillColor=none;" parent="1" vertex="1">
          <mxGeometry x="380" y="352" width="30" height="30" as="geometry" />
        </mxCell>
        <mxCell id="SfofTPBKXxh9Nz9_e_g--9" value="&lt;font style=&quot;font-size: 11px;&quot;&gt;1&lt;/font&gt;" style="text;html=1;align=center;verticalAlign=middle;resizable=0;points=[];autosize=1;strokeColor=none;fillColor=none;" parent="1" vertex="1">
          <mxGeometry x="406" y="392" width="30" height="30" as="geometry" />
        </mxCell>
        <mxCell id="SfofTPBKXxh9Nz9_e_g--10" value="&lt;font style=&quot;font-size: 11px;&quot;&gt;1&lt;/font&gt;" style="text;html=1;align=center;verticalAlign=middle;resizable=0;points=[];autosize=1;strokeColor=none;fillColor=none;" parent="1" vertex="1">
          <mxGeometry x="559" y="220" width="30" height="30" as="geometry" />
        </mxCell>
        <mxCell id="SfofTPBKXxh9Nz9_e_g--11" value="&lt;font style=&quot;font-size: 11px;&quot;&gt;1...*&lt;/font&gt;" style="text;html=1;align=center;verticalAlign=middle;resizable=0;points=[];autosize=1;strokeColor=none;fillColor=none;" parent="1" vertex="1">
          <mxGeometry x="1030" y="649" width="40" height="30" as="geometry" />
        </mxCell>
        <mxCell id="SfofTPBKXxh9Nz9_e_g--12" value="&lt;font style=&quot;font-size: 11px;&quot;&gt;1&lt;/font&gt;" style="text;html=1;align=center;verticalAlign=middle;resizable=0;points=[];autosize=1;strokeColor=none;fillColor=none;" parent="1" vertex="1">
          <mxGeometry x="1035" y="275" width="30" height="30" as="geometry" />
        </mxCell>
        <mxCell id="SfofTPBKXxh9Nz9_e_g--13" value="&lt;font style=&quot;font-size: 11px;&quot;&gt;1&lt;/font&gt;" style="text;html=1;align=center;verticalAlign=middle;resizable=0;points=[];autosize=1;strokeColor=none;fillColor=none;" parent="1" vertex="1">
          <mxGeometry x="1033" y="873" width="30" height="30" as="geometry" />
        </mxCell>
        <mxCell id="SfofTPBKXxh9Nz9_e_g--14" value="&lt;font style=&quot;font-size: 11px;&quot;&gt;*&lt;/font&gt;" style="text;html=1;align=center;verticalAlign=middle;resizable=0;points=[];autosize=1;strokeColor=none;fillColor=none;" parent="1" vertex="1">
          <mxGeometry x="616" y="239" width="30" height="30" as="geometry" />
        </mxCell>
        <mxCell id="SfofTPBKXxh9Nz9_e_g--16" value="&lt;font style=&quot;font-size: 11px;&quot;&gt;*&lt;/font&gt;" style="text;html=1;align=center;verticalAlign=middle;resizable=0;points=[];autosize=1;strokeColor=none;fillColor=none;" parent="1" vertex="1">
          <mxGeometry x="1033" y="615" width="30" height="30" as="geometry" />
        </mxCell>
        <mxCell id="SfofTPBKXxh9Nz9_e_g--17" value="&lt;font style=&quot;font-size: 11px;&quot;&gt;1&lt;/font&gt;" style="text;html=1;align=center;verticalAlign=middle;resizable=0;points=[];autosize=1;strokeColor=none;fillColor=none;" parent="1" vertex="1">
          <mxGeometry x="1035" y="306" width="30" height="30" as="geometry" />
        </mxCell>
        <mxCell id="SfofTPBKXxh9Nz9_e_g--19" value="&lt;font style=&quot;font-size: 11px;&quot;&gt;1&lt;/font&gt;" style="text;html=1;align=center;verticalAlign=middle;resizable=0;points=[];autosize=1;strokeColor=none;fillColor=none;" parent="1" vertex="1">
          <mxGeometry x="714" y="890" width="30" height="30" as="geometry" />
        </mxCell>
        <mxCell id="SfofTPBKXxh9Nz9_e_g--20" value="&lt;font style=&quot;font-size: 11px;&quot;&gt;1&lt;/font&gt;" style="text;html=1;align=center;verticalAlign=middle;resizable=0;points=[];autosize=1;strokeColor=none;fillColor=none;" parent="1" vertex="1">
          <mxGeometry x="856" y="891" width="30" height="30" as="geometry" />
        </mxCell>
        <mxCell id="SfofTPBKXxh9Nz9_e_g--21" value="&lt;font style=&quot;font-size: 11px;&quot;&gt;1&lt;/font&gt;" style="text;html=1;align=center;verticalAlign=middle;resizable=0;points=[];autosize=1;strokeColor=none;fillColor=none;" parent="1" vertex="1">
          <mxGeometry x="49" y="451" width="30" height="30" as="geometry" />
        </mxCell>
        <mxCell id="SfofTPBKXxh9Nz9_e_g--23" value="&lt;font style=&quot;font-size: 11px;&quot;&gt;1&lt;/font&gt;" style="text;html=1;align=center;verticalAlign=middle;resizable=0;points=[];autosize=1;strokeColor=none;fillColor=none;" parent="1" vertex="1">
          <mxGeometry x="49" y="470" width="30" height="30" as="geometry" />
        </mxCell>
        <mxCell id="SfofTPBKXxh9Nz9_e_g--24" value="&lt;font style=&quot;font-size: 11px;&quot;&gt;1&lt;/font&gt;" style="text;html=1;align=center;verticalAlign=middle;resizable=0;points=[];autosize=1;strokeColor=none;fillColor=none;" parent="1" vertex="1">
          <mxGeometry x="49" y="487" width="30" height="30" as="geometry" />
        </mxCell>
        <mxCell id="SfofTPBKXxh9Nz9_e_g--25" value="&lt;font style=&quot;font-size: 11px;&quot;&gt;1&lt;/font&gt;" style="text;html=1;align=center;verticalAlign=middle;resizable=0;points=[];autosize=1;strokeColor=none;fillColor=none;" parent="1" vertex="1">
          <mxGeometry x="50" y="522" width="30" height="30" as="geometry" />
        </mxCell>
        <mxCell id="SfofTPBKXxh9Nz9_e_g--26" value="&lt;font style=&quot;font-size: 11px;&quot;&gt;1&lt;/font&gt;" style="text;html=1;align=center;verticalAlign=middle;resizable=0;points=[];autosize=1;strokeColor=none;fillColor=none;" parent="1" vertex="1">
          <mxGeometry x="77" y="523" width="30" height="30" as="geometry" />
        </mxCell>
        <mxCell id="SfofTPBKXxh9Nz9_e_g--27" value="&lt;font style=&quot;font-size: 11px;&quot;&gt;1&lt;/font&gt;" style="text;html=1;align=center;verticalAlign=middle;resizable=0;points=[];autosize=1;strokeColor=none;fillColor=none;" parent="1" vertex="1">
          <mxGeometry x="125" y="523" width="30" height="30" as="geometry" />
        </mxCell>
        <mxCell id="SfofTPBKXxh9Nz9_e_g--28" value="&lt;font style=&quot;font-size: 11px;&quot;&gt;1&lt;/font&gt;" style="text;html=1;align=center;verticalAlign=middle;resizable=0;points=[];autosize=1;strokeColor=none;fillColor=none;" parent="1" vertex="1">
          <mxGeometry x="181" y="524" width="30" height="30" as="geometry" />
        </mxCell>
        <mxCell id="SfofTPBKXxh9Nz9_e_g--29" value="&lt;font style=&quot;font-size: 11px;&quot;&gt;1&lt;/font&gt;" style="text;html=1;align=center;verticalAlign=middle;resizable=0;points=[];autosize=1;strokeColor=none;fillColor=none;" parent="1" vertex="1">
          <mxGeometry x="220" y="472" width="30" height="30" as="geometry" />
        </mxCell>
        <mxCell id="SfofTPBKXxh9Nz9_e_g--30" value="&lt;font style=&quot;font-size: 11px;&quot;&gt;1&lt;/font&gt;" style="text;html=1;align=center;verticalAlign=middle;resizable=0;points=[];autosize=1;strokeColor=none;fillColor=none;" parent="1" vertex="1">
          <mxGeometry x="220" y="440" width="30" height="30" as="geometry" />
        </mxCell>
        <mxCell id="SfofTPBKXxh9Nz9_e_g--31" value="&lt;font style=&quot;font-size: 11px;&quot;&gt;*&lt;/font&gt;" style="text;html=1;align=center;verticalAlign=middle;resizable=0;points=[];autosize=1;strokeColor=none;fillColor=none;" parent="1" vertex="1">
          <mxGeometry x="220" y="903" width="30" height="30" as="geometry" />
        </mxCell>
        <mxCell id="SfofTPBKXxh9Nz9_e_g--32" value="&lt;font style=&quot;font-size: 11px;&quot;&gt;1&lt;/font&gt;" style="text;html=1;align=center;verticalAlign=middle;resizable=0;points=[];autosize=1;strokeColor=none;fillColor=none;" parent="1" vertex="1">
          <mxGeometry x="624" y="944" width="30" height="30" as="geometry" />
        </mxCell>
        <mxCell id="SfofTPBKXxh9Nz9_e_g--34" value="&lt;font style=&quot;font-size: 11px;&quot;&gt;1...*&lt;/font&gt;" style="text;html=1;align=center;verticalAlign=middle;resizable=0;points=[];autosize=1;strokeColor=none;fillColor=none;" parent="1" vertex="1">
          <mxGeometry x="185" y="1034" width="40" height="30" as="geometry" />
        </mxCell>
        <mxCell id="SfofTPBKXxh9Nz9_e_g--35" value="&lt;font style=&quot;font-size: 11px;&quot;&gt;1&lt;/font&gt;" style="text;html=1;align=center;verticalAlign=middle;resizable=0;points=[];autosize=1;strokeColor=none;fillColor=none;" parent="1" vertex="1">
          <mxGeometry x="463" y="450" width="30" height="30" as="geometry" />
        </mxCell>
        <mxCell id="SfofTPBKXxh9Nz9_e_g--36" value="&lt;font style=&quot;font-size: 11px;&quot;&gt;1&lt;/font&gt;" style="text;html=1;align=center;verticalAlign=middle;resizable=0;points=[];autosize=1;strokeColor=none;fillColor=none;" parent="1" vertex="1">
          <mxGeometry x="460" y="587" width="30" height="30" as="geometry" />
        </mxCell>
        <mxCell id="SfofTPBKXxh9Nz9_e_g--37" value="&lt;font style=&quot;font-size: 11px;&quot;&gt;*&lt;/font&gt;" style="text;html=1;align=center;verticalAlign=middle;resizable=0;points=[];autosize=1;strokeColor=none;fillColor=none;" parent="1" vertex="1">
          <mxGeometry x="625" y="541" width="30" height="30" as="geometry" />
        </mxCell>
        <mxCell id="SfofTPBKXxh9Nz9_e_g--40" value="&lt;font style=&quot;font-size: 11px;&quot;&gt;*&lt;/font&gt;" style="text;html=1;align=center;verticalAlign=middle;resizable=0;points=[];autosize=1;strokeColor=none;fillColor=none;" parent="1" vertex="1">
          <mxGeometry x="624" y="520" width="30" height="30" as="geometry" />
        </mxCell>
        <mxCell id="SfofTPBKXxh9Nz9_e_g--46" value="&lt;font style=&quot;font-size: 11px;&quot;&gt;1&lt;/font&gt;" style="text;html=1;align=center;verticalAlign=middle;resizable=0;points=[];autosize=1;strokeColor=none;fillColor=none;" parent="1" vertex="1">
          <mxGeometry x="540" y="448" width="30" height="30" as="geometry" />
        </mxCell>
        <mxCell id="SfofTPBKXxh9Nz9_e_g--47" value="&lt;font style=&quot;font-size: 11px;&quot;&gt;1&lt;/font&gt;" style="text;html=1;align=center;verticalAlign=middle;resizable=0;points=[];autosize=1;strokeColor=none;fillColor=none;" parent="1" vertex="1">
          <mxGeometry x="560" y="449" width="30" height="30" as="geometry" />
        </mxCell>
        <mxCell id="SfofTPBKXxh9Nz9_e_g--48" value="&lt;font style=&quot;font-size: 11px;&quot;&gt;1&lt;/font&gt;" style="text;html=1;align=center;verticalAlign=middle;resizable=0;points=[];autosize=1;strokeColor=none;fillColor=none;" parent="1" vertex="1">
          <mxGeometry x="951" y="483" width="30" height="30" as="geometry" />
        </mxCell>
        <mxCell id="SfofTPBKXxh9Nz9_e_g--49" value="&lt;font style=&quot;font-size: 11px;&quot;&gt;1&lt;/font&gt;" style="text;html=1;align=center;verticalAlign=middle;resizable=0;points=[];autosize=1;strokeColor=none;fillColor=none;" parent="1" vertex="1">
          <mxGeometry x="856" y="270" width="30" height="30" as="geometry" />
        </mxCell>
        <mxCell id="SfofTPBKXxh9Nz9_e_g--50" value="&lt;font style=&quot;font-size: 11px;&quot;&gt;1&lt;/font&gt;" style="text;html=1;align=center;verticalAlign=middle;resizable=0;points=[];autosize=1;strokeColor=none;fillColor=none;" parent="1" vertex="1">
          <mxGeometry x="859" y="297" width="30" height="30" as="geometry" />
        </mxCell>
        <mxCell id="SfofTPBKXxh9Nz9_e_g--51" value="&lt;font style=&quot;font-size: 11px;&quot;&gt;1&lt;/font&gt;" style="text;html=1;align=center;verticalAlign=middle;resizable=0;points=[];autosize=1;strokeColor=none;fillColor=none;" parent="1" vertex="1">
          <mxGeometry x="750" y="352" width="30" height="30" as="geometry" />
        </mxCell>
        <mxCell id="SfofTPBKXxh9Nz9_e_g--52" value="&lt;font style=&quot;font-size: 11px;&quot;&gt;1&lt;/font&gt;" style="text;html=1;align=center;verticalAlign=middle;resizable=0;points=[];autosize=1;strokeColor=none;fillColor=none;" parent="1" vertex="1">
          <mxGeometry x="579" y="406" width="30" height="30" as="geometry" />
        </mxCell>
        <mxCell id="SfofTPBKXxh9Nz9_e_g--53" value="&lt;font style=&quot;font-size: 11px;&quot;&gt;1&lt;/font&gt;" style="text;html=1;align=center;verticalAlign=middle;resizable=0;points=[];autosize=1;strokeColor=none;fillColor=none;" parent="1" vertex="1">
          <mxGeometry x="633" y="405" width="30" height="30" as="geometry" />
        </mxCell>
        <mxCell id="SfofTPBKXxh9Nz9_e_g--54" value="&lt;font style=&quot;font-size: 11px;&quot;&gt;1&lt;/font&gt;" style="text;html=1;align=center;verticalAlign=middle;resizable=0;points=[];autosize=1;strokeColor=none;fillColor=none;" parent="1" vertex="1">
          <mxGeometry x="856" y="236" width="30" height="30" as="geometry" />
        </mxCell>
        <mxCell id="SfofTPBKXxh9Nz9_e_g--55" value="&lt;font style=&quot;font-size: 11px;&quot;&gt;*&lt;/font&gt;" style="text;html=1;align=center;verticalAlign=middle;resizable=0;points=[];autosize=1;strokeColor=none;fillColor=none;" parent="1" vertex="1">
          <mxGeometry x="125" y="547" width="30" height="30" as="geometry" />
        </mxCell>
        <mxCell id="SfofTPBKXxh9Nz9_e_g--56" value="&lt;font style=&quot;font-size: 11px;&quot;&gt;1&lt;/font&gt;" style="text;html=1;align=center;verticalAlign=middle;resizable=0;points=[];autosize=1;strokeColor=none;fillColor=none;" parent="1" vertex="1">
          <mxGeometry x="125" y="654" width="30" height="30" as="geometry" />
        </mxCell>
        <mxCell id="SfofTPBKXxh9Nz9_e_g--57" value="&lt;font style=&quot;font-size: 11px;&quot;&gt;*&lt;/font&gt;" style="text;html=1;align=center;verticalAlign=middle;resizable=0;points=[];autosize=1;strokeColor=none;fillColor=none;" parent="1" vertex="1">
          <mxGeometry x="126" y="683" width="30" height="30" as="geometry" />
        </mxCell>
        <mxCell id="SfofTPBKXxh9Nz9_e_g--59" value="&lt;font style=&quot;font-size: 11px;&quot;&gt;1...*&lt;/font&gt;" style="text;html=1;align=center;verticalAlign=middle;resizable=0;points=[];autosize=1;strokeColor=none;fillColor=none;" parent="1" vertex="1">
          <mxGeometry x="2" y="780" width="40" height="30" as="geometry" />
        </mxCell>
        <mxCell id="SfofTPBKXxh9Nz9_e_g--60" value="&lt;font style=&quot;font-size: 11px;&quot;&gt;1&lt;/font&gt;" style="text;html=1;align=center;verticalAlign=middle;resizable=0;points=[];autosize=1;strokeColor=none;fillColor=none;" parent="1" vertex="1">
          <mxGeometry x="-195" y="725" width="30" height="30" as="geometry" />
        </mxCell>
        <mxCell id="SfofTPBKXxh9Nz9_e_g--63" value="&lt;font style=&quot;font-size: 11px;&quot;&gt;1...*&lt;/font&gt;" style="text;html=1;align=center;verticalAlign=middle;resizable=0;points=[];autosize=1;strokeColor=none;fillColor=none;" parent="1" vertex="1">
          <mxGeometry x="-200" y="536" width="40" height="30" as="geometry" />
        </mxCell>
        <mxCell id="SfofTPBKXxh9Nz9_e_g--64" value="&lt;font style=&quot;font-size: 11px;&quot;&gt;1&lt;/font&gt;" style="text;html=1;align=center;verticalAlign=middle;resizable=0;points=[];autosize=1;strokeColor=none;fillColor=none;" parent="1" vertex="1">
          <mxGeometry x="-200" y="425" width="30" height="30" as="geometry" />
        </mxCell>
        <mxCell id="SfofTPBKXxh9Nz9_e_g--65" value="&lt;font style=&quot;font-size: 11px;&quot;&gt;*&lt;/font&gt;" style="text;html=1;align=center;verticalAlign=middle;resizable=0;points=[];autosize=1;strokeColor=none;fillColor=none;" parent="1" vertex="1">
          <mxGeometry x="42" y="432" width="30" height="30" as="geometry" />
        </mxCell>
        <mxCell id="SfofTPBKXxh9Nz9_e_g--66" value="&lt;font style=&quot;font-size: 11px;&quot;&gt;1...*&lt;/font&gt;" style="text;html=1;align=center;verticalAlign=middle;resizable=0;points=[];autosize=1;strokeColor=none;fillColor=none;" parent="1" vertex="1">
          <mxGeometry x="145" y="408" width="40" height="30" as="geometry" />
        </mxCell>
        <mxCell id="SfofTPBKXxh9Nz9_e_g--67" value="&lt;font style=&quot;font-size: 11px;&quot;&gt;1&lt;/font&gt;" style="text;html=1;align=center;verticalAlign=middle;resizable=0;points=[];autosize=1;strokeColor=none;fillColor=none;" parent="1" vertex="1">
          <mxGeometry x="-133" y="90" width="30" height="30" as="geometry" />
        </mxCell>
        <mxCell id="SfofTPBKXxh9Nz9_e_g--68" value="&lt;font style=&quot;font-size: 11px;&quot;&gt;1&lt;/font&gt;" style="text;html=1;align=center;verticalAlign=middle;resizable=0;points=[];autosize=1;strokeColor=none;fillColor=none;" parent="1" vertex="1">
          <mxGeometry x="-377" y="531" width="30" height="30" as="geometry" />
        </mxCell>
        <mxCell id="SfofTPBKXxh9Nz9_e_g--69" value="&lt;font style=&quot;font-size: 11px;&quot;&gt;1&lt;/font&gt;" style="text;html=1;align=center;verticalAlign=middle;resizable=0;points=[];autosize=1;strokeColor=none;fillColor=none;" parent="1" vertex="1">
          <mxGeometry x="656" y="-43" width="30" height="30" as="geometry" />
        </mxCell>
        <mxCell id="SfofTPBKXxh9Nz9_e_g--70" value="&lt;font style=&quot;font-size: 11px;&quot;&gt;1&lt;/font&gt;" style="text;html=1;align=center;verticalAlign=middle;resizable=0;points=[];autosize=1;strokeColor=none;fillColor=none;" parent="1" vertex="1">
          <mxGeometry x="-170" y="-43" width="30" height="30" as="geometry" />
        </mxCell>
        <mxCell id="SfofTPBKXxh9Nz9_e_g--71" value="&lt;font style=&quot;font-size: 11px;&quot;&gt;1&lt;/font&gt;" style="text;html=1;align=center;verticalAlign=middle;resizable=0;points=[];autosize=1;strokeColor=none;fillColor=none;" parent="1" vertex="1">
          <mxGeometry x="686" y="-50" width="30" height="30" as="geometry" />
        </mxCell>
        <mxCell id="SfofTPBKXxh9Nz9_e_g--72" value="&lt;font style=&quot;font-size: 11px;&quot;&gt;1&lt;/font&gt;" style="text;html=1;align=center;verticalAlign=middle;resizable=0;points=[];autosize=1;strokeColor=none;fillColor=none;" parent="1" vertex="1">
          <mxGeometry x="579" y="944" width="30" height="30" as="geometry" />
        </mxCell>
        <mxCell id="SfofTPBKXxh9Nz9_e_g--73" value="&lt;font style=&quot;font-size: 11px;&quot;&gt;1&lt;/font&gt;" style="text;html=1;align=center;verticalAlign=middle;resizable=0;points=[];autosize=1;strokeColor=none;fillColor=none;" parent="1" vertex="1">
          <mxGeometry x="576" y="802" width="30" height="30" as="geometry" />
        </mxCell>
        <mxCell id="SfofTPBKXxh9Nz9_e_g--74" value="&lt;font style=&quot;font-size: 11px;&quot;&gt;1&lt;/font&gt;" style="text;html=1;align=center;verticalAlign=middle;resizable=0;points=[];autosize=1;strokeColor=none;fillColor=none;" parent="1" vertex="1">
          <mxGeometry x="507" y="734" width="30" height="30" as="geometry" />
        </mxCell>
        <mxCell id="SfofTPBKXxh9Nz9_e_g--77" value="&lt;font style=&quot;font-size: 11px;&quot;&gt;1&lt;/font&gt;" style="text;html=1;align=center;verticalAlign=middle;resizable=0;points=[];autosize=1;strokeColor=none;fillColor=none;" parent="1" vertex="1">
          <mxGeometry x="546" y="737" width="30" height="30" as="geometry" />
        </mxCell>
        <mxCell id="SfofTPBKXxh9Nz9_e_g--78" value="&lt;font style=&quot;font-size: 11px;&quot;&gt;1&lt;/font&gt;" style="text;html=1;align=center;verticalAlign=middle;resizable=0;points=[];autosize=1;strokeColor=none;fillColor=none;" parent="1" vertex="1">
          <mxGeometry x="444" y="734" width="30" height="30" as="geometry" />
        </mxCell>
        <mxCell id="SfofTPBKXxh9Nz9_e_g--79" value="&lt;font style=&quot;font-size: 11px;&quot;&gt;1&lt;/font&gt;" style="text;html=1;align=center;verticalAlign=middle;resizable=0;points=[];autosize=1;strokeColor=none;fillColor=none;" parent="1" vertex="1">
          <mxGeometry x="444" y="770" width="30" height="30" as="geometry" />
        </mxCell>
        <mxCell id="SfofTPBKXxh9Nz9_e_g--80" value="&lt;font style=&quot;font-size: 11px;&quot;&gt;1&lt;/font&gt;" style="text;html=1;align=center;verticalAlign=middle;resizable=0;points=[];autosize=1;strokeColor=none;fillColor=none;" parent="1" vertex="1">
          <mxGeometry x="501" y="837" width="30" height="30" as="geometry" />
        </mxCell>
        <mxCell id="SfofTPBKXxh9Nz9_e_g--81" value="&lt;font style=&quot;font-size: 11px;&quot;&gt;1&lt;/font&gt;" style="text;html=1;align=center;verticalAlign=middle;resizable=0;points=[];autosize=1;strokeColor=none;fillColor=none;" parent="1" vertex="1">
          <mxGeometry x="806" y="425" width="30" height="30" as="geometry" />
        </mxCell>
        <mxCell id="SfofTPBKXxh9Nz9_e_g--82" value="&lt;font style=&quot;font-size: 11px;&quot;&gt;1&lt;/font&gt;" style="text;html=1;align=center;verticalAlign=middle;resizable=0;points=[];autosize=1;strokeColor=none;fillColor=none;" parent="1" vertex="1">
          <mxGeometry x="429" y="883" width="30" height="30" as="geometry" />
        </mxCell>
        <mxCell id="SfofTPBKXxh9Nz9_e_g--83" value="&lt;font style=&quot;font-size: 11px;&quot;&gt;1&lt;/font&gt;" style="text;html=1;align=center;verticalAlign=middle;resizable=0;points=[];autosize=1;strokeColor=none;fillColor=none;" parent="1" vertex="1">
          <mxGeometry x="429" y="925" width="30" height="30" as="geometry" />
        </mxCell>
        <mxCell id="SfofTPBKXxh9Nz9_e_g--84" value="&lt;font style=&quot;font-size: 11px;&quot;&gt;1&lt;/font&gt;" style="text;html=1;align=center;verticalAlign=middle;resizable=0;points=[];autosize=1;strokeColor=none;fillColor=none;" parent="1" vertex="1">
          <mxGeometry x="724" y="616" width="30" height="30" as="geometry" />
        </mxCell>
        <mxCell id="SfofTPBKXxh9Nz9_e_g--85" value="&lt;font style=&quot;font-size: 11px;&quot;&gt;2...*&lt;/font&gt;" style="text;html=1;align=center;verticalAlign=middle;resizable=0;points=[];autosize=1;strokeColor=none;fillColor=none;" parent="1" vertex="1">
          <mxGeometry x="734" y="646" width="40" height="30" as="geometry" />
        </mxCell>
        <mxCell id="SfofTPBKXxh9Nz9_e_g--86" value="&lt;font style=&quot;font-size: 11px;&quot;&gt;*&lt;/font&gt;" style="text;html=1;align=center;verticalAlign=middle;resizable=0;points=[];autosize=1;strokeColor=none;fillColor=none;" parent="1" vertex="1">
          <mxGeometry x="371" y="19" width="30" height="30" as="geometry" />
        </mxCell>
        <mxCell id="SfofTPBKXxh9Nz9_e_g--87" value="&lt;font style=&quot;font-size: 11px;&quot;&gt;1&lt;/font&gt;" style="text;html=1;align=center;verticalAlign=middle;resizable=0;points=[];autosize=1;strokeColor=none;fillColor=none;" parent="1" vertex="1">
          <mxGeometry x="540" y="19" width="30" height="30" as="geometry" />
        </mxCell>
        <mxCell id="SfofTPBKXxh9Nz9_e_g--89" value="" style="endArrow=none;html=1;rounded=0;entryX=0;entryY=0.5;entryDx=0;entryDy=0;startArrow=diamondThin;startFill=0;endSize=8;startSize=10;" parent="1" target="MVc7WZ1SkRlFC5I5kt_B-21" edge="1">
          <mxGeometry width="50" height="50" relative="1" as="geometry">
            <mxPoint x="-80" y="8" as="sourcePoint" />
            <mxPoint x="-10" y="20" as="targetPoint" />
          </mxGeometry>
        </mxCell>
        <mxCell id="SfofTPBKXxh9Nz9_e_g--90" value="Works At" style="edgeLabel;html=1;align=center;verticalAlign=middle;resizable=0;points=[];" parent="SfofTPBKXxh9Nz9_e_g--89" vertex="1" connectable="0">
          <mxGeometry x="-0.3709" y="1" relative="1" as="geometry">
            <mxPoint x="16" y="-7" as="offset" />
          </mxGeometry>
        </mxCell>
        <mxCell id="SfofTPBKXxh9Nz9_e_g--91" value="" style="triangle;aspect=fixed;fillColor=strokeColor;strokeColor=default;fontStyle=0;rotation=-180;" parent="1" vertex="1">
          <mxGeometry x="-68" y="-4" width="4" height="8" as="geometry" />
        </mxCell>
        <mxCell id="SfofTPBKXxh9Nz9_e_g--92" value="&lt;font style=&quot;font-size: 11px;&quot;&gt;1&lt;/font&gt;" style="text;html=1;align=center;verticalAlign=middle;resizable=0;points=[];autosize=1;strokeColor=none;fillColor=none;" parent="1" vertex="1">
          <mxGeometry x="-92" y="-15" width="30" height="30" as="geometry" />
        </mxCell>
        <mxCell id="SfofTPBKXxh9Nz9_e_g--93" value="&lt;font style=&quot;font-size: 11px;&quot;&gt;*&lt;/font&gt;" style="text;html=1;align=center;verticalAlign=middle;resizable=0;points=[];autosize=1;strokeColor=none;fillColor=none;" parent="1" vertex="1">
          <mxGeometry x="-23" y="-11" width="30" height="30" as="geometry" />
        </mxCell>
        <mxCell id="SfofTPBKXxh9Nz9_e_g--99" value="&lt;font style=&quot;font-size: 11px;&quot;&gt;*&lt;/font&gt;" style="text;html=1;align=center;verticalAlign=middle;resizable=0;points=[];autosize=1;strokeColor=none;fillColor=none;" parent="1" vertex="1">
          <mxGeometry x="-76" y="494" width="30" height="30" as="geometry" />
        </mxCell>
        <mxCell id="SfofTPBKXxh9Nz9_e_g--100" value="&lt;span style=&quot;font-size: 11px;&quot;&gt;*&lt;/span&gt;" style="text;html=1;align=center;verticalAlign=middle;resizable=0;points=[];autosize=1;strokeColor=none;fillColor=none;" parent="1" vertex="1">
          <mxGeometry x="859" y="667" width="30" height="30" as="geometry" />
        </mxCell>
        <mxCell id="Ch_3DL-kyC5Ab0bBRN-M-2" value="Amortization Line Item" style="swimlane;fontStyle=1;align=center;verticalAlign=top;childLayout=stackLayout;horizontal=1;startSize=26;horizontalStack=0;resizeParent=1;resizeParentMax=0;resizeLast=0;collapsible=1;marginBottom=0;whiteSpace=wrap;html=1;" parent="1" vertex="1">
          <mxGeometry x="-153" y="912" width="160" height="160" as="geometry" />
        </mxCell>
        <mxCell id="Ch_3DL-kyC5Ab0bBRN-M-3" value="&lt;div&gt;date&lt;/div&gt;&lt;div&gt;principal&lt;/div&gt;&lt;div&gt;interest&lt;/div&gt;&lt;div&gt;fees&lt;/div&gt;&lt;div&gt;origPrinc&lt;/div&gt;&lt;div&gt;newPrinc&lt;/div&gt;&lt;div&gt;taxEscrowDue&lt;/div&gt;&lt;div&gt;&lt;br&gt;&lt;/div&gt;&lt;div&gt;&lt;div&gt;&lt;br&gt;&lt;/div&gt;&lt;/div&gt;" style="text;strokeColor=none;fillColor=none;align=left;verticalAlign=top;spacingLeft=4;spacingRight=4;overflow=hidden;rotatable=0;points=[[0,0.5],[1,0.5]];portConstraint=eastwest;whiteSpace=wrap;html=1;fontStyle=0" parent="Ch_3DL-kyC5Ab0bBRN-M-2" vertex="1">
          <mxGeometry y="26" width="160" height="104" as="geometry" />
        </mxCell>
        <mxCell id="Ch_3DL-kyC5Ab0bBRN-M-4" value="" style="line;strokeWidth=1;fillColor=none;align=left;verticalAlign=middle;spacingTop=-1;spacingLeft=3;spacingRight=3;rotatable=0;labelPosition=right;points=[];portConstraint=eastwest;strokeColor=inherit;fontStyle=0" parent="Ch_3DL-kyC5Ab0bBRN-M-2" vertex="1">
          <mxGeometry y="130" width="160" height="30" as="geometry" />
        </mxCell>
        <mxCell id="Ch_3DL-kyC5Ab0bBRN-M-11" value="" style="endArrow=diamondThin;html=1;rounded=0;strokeColor=default;align=center;verticalAlign=middle;fontFamily=Helvetica;fontSize=11;fontColor=default;labelBackgroundColor=default;exitX=0.5;exitY=0;exitDx=0;exitDy=0;entryX=0.5;entryY=1;entryDx=0;entryDy=0;endFill=1;startSize=6;endSize=10;fontStyle=0" parent="1" edge="1">
          <mxGeometry width="50" height="50" relative="1" as="geometry">
            <mxPoint x="-73.5" y="911" as="sourcePoint" />
            <mxPoint x="-73.5" y="869" as="targetPoint" />
          </mxGeometry>
        </mxCell>
        <mxCell id="Ch_3DL-kyC5Ab0bBRN-M-12" value="Aggregates" style="edgeLabel;html=1;align=center;verticalAlign=middle;resizable=0;points=[];fontStyle=0" parent="Ch_3DL-kyC5Ab0bBRN-M-11" vertex="1" connectable="0">
          <mxGeometry x="-0.3063" y="-1" relative="1" as="geometry">
            <mxPoint x="11" y="-5" as="offset" />
          </mxGeometry>
        </mxCell>
        <mxCell id="Ch_3DL-kyC5Ab0bBRN-M-13" value="" style="triangle;aspect=fixed;fillColor=strokeColor;strokeColor=default;fontStyle=0;rotation=90;" parent="1" vertex="1">
          <mxGeometry x="-65.5" y="897" width="4" height="8" as="geometry" />
        </mxCell>
        <mxCell id="Ch_3DL-kyC5Ab0bBRN-M-14" value="&lt;font style=&quot;font-size: 11px;&quot;&gt;1&lt;/font&gt;" style="text;html=1;align=center;verticalAlign=middle;resizable=0;points=[];autosize=1;strokeColor=none;fillColor=none;" parent="1" vertex="1">
          <mxGeometry x="-98.5" y="862" width="30" height="30" as="geometry" />
        </mxCell>
        <mxCell id="Ch_3DL-kyC5Ab0bBRN-M-15" value="&lt;font style=&quot;font-size: 11px;&quot;&gt;*&lt;/font&gt;" style="text;html=1;align=center;verticalAlign=middle;resizable=0;points=[];autosize=1;strokeColor=none;fillColor=none;" parent="1" vertex="1">
          <mxGeometry x="-97.5" y="891" width="30" height="30" as="geometry" />
        </mxCell>
      </root>
    </mxGraphModel>
  </diagram>
</mxfile>
